<?xml version="1.0" encoding="utf-8"?>
<!-- Generator: Adobe Illustrator 25.2.0, SVG Export Plug-In . SVG Version: 6.00 Build 0)  -->
<svg version="1.1" id="Capa_1" xmlns="http://www.w3.org/2000/svg" xmlns:xlink="http://www.w3.org/1999/xlink" x="0px" y="0px"
	 viewBox="0 0 24 24" style="enable-background:new 0 0 24 24;" xml:space="preserve">
<style type="text/css">
	.st0{fill:none;}
	.st1{fill:#FFFFFF;}
</style>
<path class="st0" d="M0,0h24v24H0V0z"/>
<path class="st1" d="M16.2,13c1.3,0,1.2,0,1.7-1l2.5-5.5C20.8,5.8,20.3,5,19.6,5H5.2L4.7,4H2.8v1h1.4l3.6,7.6L6.5,15
	C5.8,16.4,6.7,17,8.3,17h9.2v-1H7.1l1.7-3H16.2z M8.5,17.7c-0.7,0-1.3,0.6-1.3,1.3s0.6,1.3,1.3,1.3c0.7,0,1.3-0.6,1.3-1.3
	S9.2,17.7,8.5,17.7z M15.8,17.7c-0.7,0-1.3,0.6-1.3,1.3s0.6,1.3,1.3,1.3c0.7,0,1.3-0.6,1.3-1.3S16.5,17.7,15.8,17.7z"/>
</svg>
