<?xml version="1.0" encoding="utf-8"?>
<!-- Generator: Adobe Illustrator 25.2.0, SVG Export Plug-In . SVG Version: 6.00 Build 0)  -->
<svg version="1.1" xmlns="http://www.w3.org/2000/svg" xmlns:xlink="http://www.w3.org/1999/xlink" x="0px" y="0px"
	 viewBox="0 0 64 64" style="enable-background:new 0 0 64 64;" xml:space="preserve">
<style type="text/css">
	.st0{fill-rule:evenodd;clip-rule:evenodd;fill:#FFA96B;}
	.st1{fill-rule:evenodd;clip-rule:evenodd;fill:#FFBDBC;}
</style>
<g id="Capa_1">
	<g>
		<g>
			<path class="st0" d="M3.1,37C5.6,50.6,17.6,61,32,61c3.5,0,9.1-0.9,12.2-2.1l6.8-32.9c0,5.6-13.5,15.6-19.1,15.6
				s-10.1-4.5-10.1-10.1v10.2c0,2-1.7,3.7-3.7,3.7s-3.7-1.7-3.7-3.7v-9.2c0-1.8-1.4-3.2-3.2-3.2s-3.2,1.4-3.2,3.2v0.9
				c0,2-1.7,3.7-3.7,3.7C4,37.2,3.5,37.1,3.1,37L3.1,37z"/>
		</g>
		<g>
			<path class="st0" d="M49.5,31.2l-6.1,28.4c5.9-4.3,16.2-15.2,17.5-22.7c-0.4,0.2-0.9,0.3-1.4,0.3c-2,0-3.7-1.7-3.7-3.7v-2.3
				c0-1.7-1.4-3.2-3.2-3.2C50.9,28.1,49.5,29.5,49.5,31.2L49.5,31.2z"/>
		</g>
		<g>
			<path class="st1" d="M14.5,32.6v9.2c0,2,1.7,3.7,3.7,3.7s3.7-1.7,3.7-3.7V31.6c0-5.6,4.5-10.1,10.1-10.1S42.1,26,42.1,31.6v8
				l3.3,3.6l4.1-3.9v-8.1c0-1.7,1.4-3.2,3.2-3.2c1.7,0,3.2,1.4,3.2,3.2v2.3c0,2,1.7,3.7,3.7,3.7c0.5,0,0.9-0.1,1.4-0.3
				c0.3-1.7,0.5-3.5,0.5-5.3C61.4,15.4,48.2,2.2,32,2.2S2.6,15.4,2.6,31.6c0,1.8,0.2,3.6,0.5,5.3c0.4,0.2,0.9,0.3,1.4,0.3
				c2,0,3.7-1.7,3.7-3.7v-0.9c0-1.8,1.4-3.2,3.2-3.2S14.5,30.9,14.5,32.6L14.5,32.6z"/>
		</g>
		<path d="M19.1,19.8c-0.7,0-1.2,0.6-1.2,1.2v3.2c0,0.7,0.6,1.2,1.2,1.2s1.2-0.6,1.2-1.2V21C20.3,20.4,19.8,19.8,19.1,19.8z"/>
		<path d="M18.5,10.3c-0.5-0.5-1.3-0.5-1.8,0s-0.5,1.3,0,1.8l2.3,2.3c0.2,0.2,0.6,0.4,0.9,0.4s0.6-0.1,0.9-0.4
			c0.5-0.5,0.5-1.3,0-1.8L18.5,10.3z"/>
		<path d="M13.4,17.8L11.1,20c-0.5,0.5-0.5,1.3,0,1.8c0.2,0.2,0.6,0.4,0.9,0.4c0.3,0,0.6-0.1,0.9-0.4l2.3-2.3c0.5-0.5,0.5-1.3,0-1.8
			C14.6,17.3,13.9,17.3,13.4,17.8L13.4,17.8z"/>
		<path d="M34.1,11.9c0.7,0,1.2-0.6,1.2-1.2V7.5c0-0.7-0.6-1.2-1.2-1.2s-1.2,0.6-1.2,1.2v3.2C32.9,11.4,33.4,11.9,34.1,11.9z"/>
		<path d="M37.4,15.1h-3.2c-0.7,0-1.2,0.6-1.2,1.2c0,0.6,0.6,1.2,1.2,1.2h3.2c0.7,0,1.2-0.6,1.2-1.2C38.6,15.7,38.1,15.1,37.4,15.1z
			"/>
		<path d="M44.1,13.4c0.3,0,0.6-0.1,0.9-0.4c0.5-0.5,0.5-1.3,0-1.8L42.7,9c-0.5-0.5-1.3-0.5-1.8,0s-0.5,1.3,0,1.8l2.3,2.3
			C43.5,13.3,43.8,13.4,44.1,13.4z"/>
		<path d="M51.6,18c-0.7,0-1.2,0.6-1.2,1.2v3.2c0,0.7,0.6,1.2,1.2,1.2s1.2-0.6,1.2-1.2v-3.2C52.8,18.5,52.3,18,51.6,18z"/>
		<path d="M44.5,16.6l-2.3,2.3c-0.5,0.5-0.5,1.3,0,1.8c0.2,0.2,0.6,0.4,0.9,0.4s0.6-0.1,0.9-0.4l2.3-2.3c0.5-0.5,0.5-1.3,0-1.8
			C45.8,16.2,45,16.2,44.5,16.6L44.5,16.6z"/>
		<path d="M26.3,12.1L24,14.4c-0.5,0.5-0.5,1.3,0,1.8c0.2,0.2,0.6,0.4,0.9,0.4s0.6-0.1,0.9-0.4l2.3-2.3c0.5-0.5,0.5-1.3,0-1.8
			C27.6,11.6,26.8,11.6,26.3,12.1z"/>
		<path d="M14.1,53.3c-0.5-0.5-1.3-0.5-1.8,0s-0.5,1.3,0,1.8c0.2,0.2,0.6,0.4,0.9,0.4s0.6-0.1,0.9-0.4
			C14.6,54.6,14.6,53.8,14.1,53.3L14.1,53.3z"/>
		<path d="M18.9,56.4c-0.5-0.5-1.3-0.5-1.8,0s-0.5,1.3,0,1.8c0.2,0.2,0.6,0.4,0.9,0.4s0.6-0.1,0.9-0.4
			C19.4,57.7,19.4,56.9,18.9,56.4L18.9,56.4z"/>
	</g>
</g>
<g id="Capa_2">
	<path d="M53.7,10C47.9,4.2,40.2,1,32,1s-15.9,3.2-21.7,9s-9,13.5-9,21.7c0,7.1,2.5,14,6.9,19.4c0.4,0.5,1.2,0.6,1.8,0.2
		c0.5-0.4,0.6-1.2,0.2-1.8c-2.6-3.2-4.5-7-5.5-11c2.6-0.1,4.7-2.3,4.7-4.9v-0.9c0-1.1,0.9-1.9,1.9-1.9c1.1,0,1.9,0.9,1.9,1.9v9.2
		c0,2.7,2.2,5,5,5s5-2.2,5-5v-3.2c2.1,2.6,5.3,4.2,8.8,4.2c3.6,0,6.7-1.7,8.8-4.2c0,0,0.1,1.1,0.1,1.1c0.4,2.3,2.4,4.1,4.9,4.1
		c2.4,0,4.4-1.7,4.9-4v-8.7c0-1.1,0.9-1.9,1.9-1.9c1.1,0,1.9,0.9,1.9,1.9v2.3c0,2.6,2.1,4.8,4.7,4.9c-1.3,5.5-4.3,10.3-8.4,14.1v3.3
		c3.5-2.7,6.5-6.3,8.5-10.2c2.2-4.4,3.4-9.1,3.4-14C62.6,23.4,59.4,15.8,53.7,10z M32,40.4c-4.9,0-8.8-4-8.8-8.8
		c0-4.9,4-8.8,8.8-8.8c4.9,0,8.8,4,8.8,8.8C40.8,36.5,36.9,40.4,32,40.4z M59.5,36c-1.4,0-2.5-1.1-2.5-2.5v-2.3c0-2.4-2-4.4-4.4-4.4
		c-2.4,0-4.4,2-4.4,4.4v7.7c0,1.4-1.1,2.5-2.5,2.5c-1.4,0-2.5-1.1-2.5-2.5v-7.3c0-6.2-5.1-11.3-11.3-11.3c-6.2,0-11.3,5.1-11.3,11.3
		v10.2c0,1.4-1.1,2.5-2.5,2.5c-1.4,0-2.5-1.1-2.5-2.5v-9.2c0-2.4-2-4.4-4.4-4.4c-2.4,0-4.4,2-4.4,4.4v0.9c0,1.4-1.1,2.5-2.5,2.5H4
		c-0.2-1.4-0.3-2.9-0.3-4.3C3.9,16.1,16.5,3.5,32,3.5s28.1,12.6,28.1,28.1c0,1.5-0.1,2.9-0.3,4.3C59.7,36,59.6,36,59.5,36z"/>
	<path d="M50.7,52.6C50.7,52.6,50.8,52.5,50.7,52.6L50.7,52.6z"/>
	<g>
		<g>
			<path d="M32.1,0.7c-17,0-30.9,13.9-30.9,30.9c0,4.8,1.1,9.3,3,13.3c0.8-0.5,1.3-1,2.2-1.5c-1.7-3.6-2.2-7.6-2.2-11.8
				c0-15.4,12.5-27.9,27.9-27.9S60,16.2,60,31.6S47.5,59.5,32.1,59.5c-4.9,0-9.6-1.2-13.6-3.4c-0.1,0.1,0,0-0.1,0.1
				c-0.1,0.1-0.2,0.3-0.4,0.5c-0.3,0.4-0.5,0.8-0.6,1.2c-0.1,0.2-0.1,0.2-0.2,0.4c4.4,2.5,9.4,4.2,14.9,4.2
				c17,0,30.9-13.9,30.9-30.9C63,14.6,49.1,0.7,32.1,0.7z"/>
		</g>
	</g>
</g>
</svg>
