<?xml version="1.0" encoding="utf-8"?>
<!-- Generator: Adobe Illustrator 25.2.0, SVG Export Plug-In . SVG Version: 6.00 Build 0)  -->
<svg version="1.1" id="Capa_1" xmlns="http://www.w3.org/2000/svg" xmlns:xlink="http://www.w3.org/1999/xlink" x="0px" y="0px"
	 viewBox="0 0 64 64" style="enable-background:new 0 0 64 64;" xml:space="preserve">
<style type="text/css">
	.st0{fill-rule:evenodd;clip-rule:evenodd;fill:#FFA96B;}
	.st1{fill-rule:evenodd;clip-rule:evenodd;fill:#FFBDBC;}
</style>
<g>
	<g>
		<path class="st0" d="M3.1,36C5.6,49.6,17.6,60,32,60c3.5,0,6.9-0.6,10.1-1.8V30.6c0,5.6-4.5,10.1-10.1,10.1
			c-5.6,0-10.1-4.5-10.1-10.1v10.2c0,2-1.7,3.7-3.7,3.7c-2,0-3.7-1.7-3.7-3.7v-9.2c0-1.8-1.4-3.2-3.2-3.2s-3.2,1.4-3.2,3.2v0.9
			c0,2-1.7,3.7-3.7,3.7C4,36.2,3.5,36.1,3.1,36L3.1,36z"/>
	</g>
	<g>
		<path class="st0" d="M49.5,30.2v24c5.9-4.3,10.1-10.8,11.4-18.3c-0.4,0.2-0.9,0.3-1.4,0.3c-2,0-3.7-1.7-3.7-3.7v-2.3
			c0-1.7-1.4-3.2-3.2-3.2C50.9,27.1,49.5,28.5,49.5,30.2L49.5,30.2z"/>
	</g>
	<g>
		<path class="st1" d="M14.5,31.6v9.2c0,2,1.7,3.7,3.7,3.7c2,0,3.7-1.7,3.7-3.7V30.6c0-5.6,4.5-10.1,10.1-10.1
			c5.6,0,10.1,4.5,10.1,10.1v27.6V59c0,2,1.7,3.7,3.7,3.7c2,0,3.7-1.7,3.7-3.7v-4.8v-24c0-1.7,1.4-3.2,3.2-3.2
			c1.7,0,3.2,1.4,3.2,3.2v2.3c0,2,1.7,3.7,3.7,3.7c0.5,0,0.9-0.1,1.4-0.3c0.3-1.7,0.5-3.5,0.5-5.3C61.4,14.4,48.2,1.2,32,1.2
			C15.8,1.2,2.6,14.4,2.6,30.6c0,1.8,0.2,3.6,0.5,5.3c0.4,0.2,0.9,0.3,1.4,0.3c2,0,3.7-1.7,3.7-3.7v-0.9c0-1.8,1.4-3.2,3.2-3.2
			S14.5,29.9,14.5,31.6L14.5,31.6z"/>
	</g>
	<g>
		<path d="M53.7,9C47.9,3.2,40.2,0,32,0c-8.2,0-15.9,3.2-21.7,9c-5.8,5.8-9,13.5-9,21.7c0,7.1,2.5,14,6.9,19.4
			c0.4,0.5,1.2,0.6,1.8,0.2c0.5-0.4,0.6-1.2,0.2-1.8c-2.6-3.2-4.5-7-5.5-11c2.6-0.1,4.7-2.3,4.7-4.9v-0.9c0-1.1,0.9-1.9,1.9-1.9
			c1.1,0,1.9,0.9,1.9,1.9v9.2c0,2.7,2.2,5,5,5s5-2.2,5-5v-3.2c2.1,2.6,5.3,4.2,8.8,4.2c3.6,0,6.7-1.7,8.8-4.2v19.6
			C38,58.3,35,58.7,32,58.7c-4.8,0-9.5-1.2-13.6-3.5c-0.6-0.3-1.4-0.1-1.7,0.5c-0.3,0.6-0.1,1.4,0.5,1.7c4.5,2.5,9.6,3.8,14.8,3.8
			c3,0,6-0.4,8.9-1.3c0.4,2.3,2.4,4.1,4.9,4.1c2.7,0,5-2.2,5-5v-4.2c3.5-2.7,6.5-6.3,8.5-10.2c2.2-4.4,3.4-9.1,3.4-14
			C62.6,22.4,59.4,14.8,53.7,9L53.7,9z M32,39.4c-4.9,0-8.8-4-8.8-8.8c0-4.9,4-8.8,8.8-8.8c4.9,0,8.8,4,8.8,8.8
			C40.8,35.5,36.9,39.4,32,39.4z M50.7,51.6V30.2c0-1.1,0.9-1.9,1.9-1.9c1.1,0,1.9,0.9,1.9,1.9v2.3c0,2.6,2.1,4.8,4.7,4.9
			C57.9,42.9,54.9,47.8,50.7,51.6L50.7,51.6z M59.5,35c-1.4,0-2.5-1.1-2.5-2.5v-2.3c0-2.4-2-4.4-4.4-4.4c-2.4,0-4.4,2-4.4,4.4V59
			c0,1.4-1.1,2.5-2.5,2.5s-2.5-1.1-2.5-2.5V30.6c0-6.2-5.1-11.3-11.3-11.3c-6.2,0-11.3,5.1-11.3,11.3v10.2c0,1.4-1.1,2.5-2.5,2.5
			s-2.5-1.1-2.5-2.5v-9.2c0-2.4-2-4.4-4.4-4.4c-2.4,0-4.4,2-4.4,4.4v0.9c0,1.4-1.1,2.5-2.5,2.5c-0.1,0-0.2,0-0.3,0
			c-0.2-1.4-0.3-2.9-0.3-4.3C3.9,15.1,16.5,2.5,32,2.5c15.5,0,28.1,12.6,28.1,28.1c0,1.5-0.1,2.9-0.3,4.3C59.7,35,59.6,35,59.5,35z"
			/>
		<path d="M19.1,18.8c-0.7,0-1.2,0.6-1.2,1.2v3.2c0,0.7,0.6,1.2,1.2,1.2s1.2-0.6,1.2-1.2v-3.2C20.3,19.4,19.8,18.8,19.1,18.8z"/>
		<path d="M18.5,9.3c-0.5-0.5-1.3-0.5-1.8,0s-0.5,1.3,0,1.8l2.3,2.3c0.2,0.2,0.6,0.4,0.9,0.4c0.3,0,0.6-0.1,0.9-0.4
			c0.5-0.5,0.5-1.3,0-1.8L18.5,9.3z"/>
		<path d="M13.4,16.8L11.1,19c-0.5,0.5-0.5,1.3,0,1.8c0.2,0.2,0.6,0.4,0.9,0.4c0.3,0,0.6-0.1,0.9-0.4l2.3-2.3c0.5-0.5,0.5-1.3,0-1.8
			C14.6,16.3,13.9,16.3,13.4,16.8L13.4,16.8z"/>
		<path d="M34.1,10.9c0.7,0,1.2-0.6,1.2-1.2V6.5c0-0.7-0.6-1.2-1.2-1.2s-1.2,0.6-1.2,1.2v3.2C32.9,10.4,33.4,10.9,34.1,10.9z"/>
		<path d="M37.4,14.1h-3.2c-0.7,0-1.2,0.6-1.2,1.2s0.6,1.2,1.2,1.2h3.2c0.7,0,1.2-0.6,1.2-1.2S38.1,14.1,37.4,14.1z"/>
		<path d="M44.1,12.4c0.3,0,0.6-0.1,0.9-0.4c0.5-0.5,0.5-1.3,0-1.8L42.7,8c-0.5-0.5-1.3-0.5-1.8,0s-0.5,1.3,0,1.8l2.3,2.3
			C43.5,12.3,43.8,12.4,44.1,12.4z"/>
		<path d="M51.6,17c-0.7,0-1.2,0.6-1.2,1.2v3.2c0,0.7,0.6,1.2,1.2,1.2s1.2-0.6,1.2-1.2v-3.2C52.8,17.5,52.3,17,51.6,17z"/>
		<path d="M44.5,15.6l-2.3,2.3c-0.5,0.5-0.5,1.3,0,1.8c0.2,0.2,0.6,0.4,0.9,0.4s0.6-0.1,0.9-0.4l2.3-2.3c0.5-0.5,0.5-1.3,0-1.8
			C45.8,15.2,45,15.2,44.5,15.6L44.5,15.6z"/>
		<path d="M26.3,11.1l-2.3,2.3c-0.5,0.5-0.5,1.3,0,1.8c0.2,0.2,0.6,0.4,0.9,0.4c0.3,0,0.6-0.1,0.9-0.4l2.3-2.3
			c0.5-0.5,0.5-1.3,0-1.8C27.6,10.6,26.8,10.6,26.3,11.1z"/>
		<path d="M14.1,52.3c-0.5-0.5-1.3-0.5-1.8,0c-0.5,0.5-0.5,1.3,0,1.8c0.2,0.2,0.6,0.4,0.9,0.4s0.6-0.1,0.9-0.4
			C14.6,53.6,14.6,52.8,14.1,52.3L14.1,52.3z"/>
	</g>
</g>
</svg>
