<?xml version="1.0" encoding="utf-8"?>
<!-- Generator: Adobe Illustrator 25.2.0, SVG Export Plug-In . SVG Version: 6.00 Build 0)  -->
<svg version="1.1" id="Capa_1" xmlns="http://www.w3.org/2000/svg" xmlns:xlink="http://www.w3.org/1999/xlink" x="0px" y="0px"
	 viewBox="0 0 512 512" style="enable-background:new 0 0 512 512;" xml:space="preserve">
<style type="text/css">
	.st0{fill-rule:evenodd;clip-rule:evenodd;fill:#FF7B79;}
	.st1{fill-rule:evenodd;clip-rule:evenodd;fill:#EBDDD9;}
	.st2{fill-rule:evenodd;clip-rule:evenodd;fill:#FAF7F5;}
	.st3{fill-rule:evenodd;clip-rule:evenodd;fill:#FFBDBC;}
</style>
<g>
	<g>
		<path class="st0" d="M89.9,284.9c27.2-8.8,65.6,0,70.4,44c0-26.4,21.6-48,48-48s48,21.6,48,48c0-26.4,21.6-48,48-48s48,21.6,48,48
			c4.8-44,44-52.8,72-43.2c11.2-47.2-18.4-91.1-60.8-107.1c31.2-31.2,8-68.8-22.4-74.4c-2.4,14.4-12.8,27.2-28,36.8
			c-36.8,24-115.1,36.8-160.7,49.6c-5.6,1.6-10.4,3.2-15.2,4.8C101.9,208.2,75.5,238.5,89.9,284.9L89.9,284.9z"/>
	</g>
	<g>
		<path class="st1" d="M256.2,328.1v173.5h56.8l39.2-173.5c0-26.4-21.6-48-48-48S256.2,301.7,256.2,328.1z"/>
	</g>
	<g>
		<path class="st2" d="M160.2,328.1l40,173.5h56V328.1c0-26.4-21.6-48-48-48S160.2,301.7,160.2,328.1L160.2,328.1z"/>
	</g>
	<g>
		<path class="st1" d="M63.5,328.1l53.6,129.5c9.6,22.4,20,44,44,44h38.4l-39.2-173.5c-4.8-43.2-42.4-52.8-70.4-44
			C69.9,291.3,55.5,308.1,63.5,328.1L63.5,328.1z"/>
	</g>
	<g>
		<path class="st2" d="M352.1,328.1l-40,173.5h38.4c24,0,34.4-21.6,44-44l54.4-129.5c8-20-4.8-36-24-43.2
			C396.9,275.3,356.9,284.1,352.1,328.1L352.1,328.1z"/>
	</g>
	<g>
		<path class="st0" d="M149.8,105.8c4,6.4,9.6,11.2,16,14.4c14.4-14.4,36.8-21.6,56-32.8c0.8-8-1.6-16.8-6.4-24
			c-12-18.4-36-23.2-54.4-12C143.5,63.5,137.9,88.2,149.8,105.8z"/>
	</g>
	<g>
		<path class="st3" d="M152.2,189.8c45.6-12.8,123.9-25.6,160.7-49.6c15.2-10.4,25.6-22.4,28-36.8c4-20.8-8-45.6-40.8-71.2
			c-37.6-29.6-44.8-22.4-41.6-8.8c1.6,6.4,2.4,15.2,0,22.4c-7.2,20.8-20.8,32.8-36.8,41.6c-19.2,11.2-41.6,18.4-56,32.8
			C152.2,133.8,144.3,153.8,152.2,189.8z"/>
	</g>
	<g>
		<path d="M450.4,290.5c-4-4-8.8-8-14.4-11.2c6.4-42.4-16-83.9-56.8-105.5c8.8-13.6,11.2-28,6.4-42.4c-4.8-16-18.4-29.6-34.4-35.2
			c0-16.8-8-42.4-44.8-72c-26.4-20.8-41.6-26.4-52-20c-4,2.4-8.8,8-5.6,21.6c1.6,6.4,1.6,12,0,16.8c-4,12-10.4,20.8-19.2,27.2
			c-1.6-4-3.2-8-5.6-12C217,46.7,205.8,39.5,193,36.3c-8.8-1.6-18.4-1.6-27.2,1.6c-3.2-8.8-1.6-15.2,3.2-23.2
			c3.2-4.8,1.6-11.2-3.2-13.6c-4.8-2.4-10.4-0.8-13.6,4c-8.8,15.2-9.6,28-3.2,44c-16.8,16-20.8,42.4-8,62.4c2.4,4,5.6,8,9.6,11.2
			c-9.6,13.6-14.4,32.8-10.4,60.8c-2.4,0.8-4.8,1.6-7.2,2.4c-20.8,8-37.6,20-47.2,36.8c-10.4,16.8-12.8,36-8,56.8
			c-6.4,3.2-11.2,7.2-16,11.2c-11.2,12-13.6,27.2-7.2,41.6l53.6,129.5c8,20,20.8,50.4,53.6,50.4h37.6c0,0,0,0,0.8,0h111.9l0,0l0,0
			h37.6c32.8,0,44.8-30.4,53.6-50.4l53.6-129.5C464,317.7,460.8,302.5,450.4,290.5L450.4,290.5z M268.2,49.1
			c3.2-9.6,2.4-19.2,0.8-25.6c4.8,2.4,12,6.4,24.8,16.8c25.6,20,38.4,39.2,37.6,56.8c-0.8,16.8-13.6,28-24,35.2
			c-24.8,16-72,27.2-112.7,36.8c-12,3.2-24,5.6-34.4,8c-3.2-24.8,1.6-39.2,12-49.6c1.6-1.6,3.2-3.2,4.8-4c1.6-1.6,3.2-2.4,4.8-3.2
			c4-2.4,7.2-4.8,11.2-6.4c8.8-4.8,17.6-8.8,25.6-12.8c13.6-7.2,26.4-15.2,36-27.2C261,65.9,265,57.9,268.2,49.1z M189,56.3
			c8,1.6,14.4,6.4,18.4,12.8c2.4,4,4,8,4.8,12.8c-4.8,2.4-9.6,4.8-14.4,7.2c-11.2,5.6-23.2,11.2-32.8,19.2c-2.4-2.4-4.8-4.8-7.2-7.2
			c-8.8-13.6-4.8-32,8.8-40.8C173.8,55.5,181,54.7,189,56.3z M140.3,204.2c14.4-4.8,36-10.4,58.4-16c43.2-10.4,91.1-21.6,119.1-40
			c14.4-9.6,24-20,29.6-32.8c8.8,4,16.8,12,19.2,21.6c3.2,11.2,0,23.2-10.4,33.6l0,0l0,0c-20.8,20.8-59.2,38.4-90.3,52.8
			c-4.8,2.4-7.2,7.2-5.6,12c1.6,5.6,8,8,13.6,5.6c30.4-13.6,67.2-30.4,91.1-52c30.4,14.4,55.2,45.6,51.2,83.1
			c-11.2-2.4-23.2-1.6-34.4,2.4c-12,4-22.4,11.2-28.8,21.6c-10.4-16-28-26.4-48.8-26.4c-20,0-37.6,10.4-48,25.6
			c-10.4-15.2-28-25.6-48-25.6s-38.4,10.4-48.8,26.4c-6.4-10.4-16.8-17.6-28.8-21.6c-10.4-3.2-22.4-4-33.6-2.4
			C88.3,227.4,127.5,209,140.3,204.2L140.3,204.2z M161.8,492c-16,0-24-12.8-35.2-37.6L73.1,324.9c-3.2-8-1.6-14.4,4-20.8
			c4-4,16-13.6,32.8-12.8c4.8,0,10.4,0.8,15.2,2.4c10.4,3.2,23.2,12.8,25.6,35.2L187.4,492H161.8L161.8,492z M304.9,492h-38.4v-32
			c0-5.6-4.8-9.6-9.6-9.6c-4.8,0-9.6,4.8-9.6,9.6v32H209l-37.6-164.7c0.8-20.8,17.6-36.8,38.4-36.8s38.4,16.8,38.4,38.4v42.4
			c0,5.6,4.8,9.6,9.6,9.6c4.8,0,9.6-4.8,9.6-9.6v-43.2c0-20.8,16.8-38.4,38.4-38.4c20.8,0,37.6,16.8,38.4,36.8L304.9,492z
			 M439.3,324.9l-53.6,129.5c-10.4,24.8-18.4,37.6-35.2,37.6h-25.6c0,0,36.8-162.3,36.8-163.1c2.4-23.2,15.2-32,25.6-35.2
			c10.4-3.2,21.6-4,33.6,0.8c5.6,2.4,10.4,4.8,14.4,8.8C440.9,309.7,442.5,316.9,439.3,324.9L439.3,324.9z"/>
		<path d="M256.2,404.8c-5.6,0-9.6,4.8-9.6,9.6l0,0c0,5.6,4.8,9.6,9.6,9.6c4.8,0,9.6-4.8,9.6-10.4
			C265.8,408,261.8,404.8,256.2,404.8z"/>
	</g>
</g>
</svg>
