<?xml version="1.0" encoding="utf-8"?>
<!-- Generator: Adobe Illustrator 25.2.0, SVG Export Plug-In . SVG Version: 6.00 Build 0)  -->
<svg version="1.1" id="Capa_1" xmlns="http://www.w3.org/2000/svg" xmlns:xlink="http://www.w3.org/1999/xlink" x="0px" y="0px"
	 viewBox="0 0 187.8 75.7" style="enable-background:new 0 0 187.8 75.7;" xml:space="preserve">
<style type="text/css">
	.st0{enable-background:new    ;}
	.st1{fill:#FFFFFF;}
	.st2{fill-rule:evenodd;clip-rule:evenodd;fill:#FF7B79;}
	.st3{fill-rule:evenodd;clip-rule:evenodd;fill:#EBDDD9;}
	.st4{fill-rule:evenodd;clip-rule:evenodd;fill:#FAF7F5;}
	.st5{fill-rule:evenodd;clip-rule:evenodd;fill:#FFBDBC;}
</style>
<g>
	<g class="st0">
		<path class="st1" d="M98.3,48.3l-9.9-14.7v14.7H77.8V14.3h10.6v14.3l9.7-14.3h12L98.5,30.6L111,48.3H98.3z"/>
		<path class="st1" d="M124.6,22.8V27h10.5v8h-10.5v4.8h12v8.5H114V14.3h22.6v8.5H124.6z"/>
		<path class="st1" d="M161.2,48.3l-9.9-14.7v14.7h-10.6V14.3h10.6v14.3l9.7-14.3h12l-11.7,16.3l12.5,17.7H161.2z"/>
		<path class="st1" d="M187.5,14.3v33.9h-10.6V14.3H187.5z"/>
	</g>
</g>
<g>
	<g>
		<path class="st2" d="M7.6,41.5c3.9-1.2,9.3,0,10,6.2c0-3.7,3.1-6.8,6.8-6.8s6.8,3.1,6.8,6.8c0-3.7,3.1-6.8,6.8-6.8
			c3.9,0,6.8,3.1,6.8,6.8c0.6-6.2,6.2-7.7,10.4-6c1.5-6.8-2.7-13.1-8.7-15.1c4.4-4.4,1.2-9.7-3.1-10.6c-0.4,2.1-1.9,3.9-4.1,5.2
			c-5.2,3.3-16.4,5.2-23,7.1c-0.8,0.2-1.5,0.4-2.3,0.6C9.2,30.7,5.5,35.1,7.6,41.5L7.6,41.5z"/>
	</g>
	<g>
		<path class="st3" d="M31.2,47.7v24.9h8.1l5.6-24.9c0-3.7-3.1-6.8-6.8-6.8C34.3,40.9,31.2,44,31.2,47.7z"/>
	</g>
	<g>
		<path class="st4" d="M17.5,47.7l5.8,24.9h7.9V47.7c0-3.7-3.1-6.8-6.8-6.8S17.5,44,17.5,47.7L17.5,47.7z"/>
	</g>
	<g>
		<path class="st3" d="M3.8,47.7l7.7,18.5c1.5,3.1,2.9,6.2,6.2,6.2h5.4l-5.6-24.9c-0.6-6-6-7.7-10-6.2C4.7,42.5,2.8,45,3.8,47.7
			L3.8,47.7z"/>
	</g>
	<g>
		<path class="st4" d="M44.9,47.7l-5.8,24.9h5.4c3.3,0,5-3.1,6.2-6.2l7.7-18.5c1.2-2.9-0.6-5-3.3-6C51.3,40.3,45.5,41.5,44.9,47.7
			L44.9,47.7z"/>
	</g>
	<g>
		<path class="st2" d="M16.1,16c0.4,0.8,1.5,1.5,2.3,2.1c2.1-2.1,5.2-3.1,7.9-4.8c0.2-1.2-0.2-2.3-0.8-3.3c-1.7-2.7-5-3.3-7.7-1.7
			C15.2,10,14.4,13.5,16.1,16z"/>
	</g>
	<g>
		<path class="st5" d="M16.5,28c6.6-1.9,17.8-3.7,23-7.1c2.3-1.5,3.7-3.1,4.1-5.2c0.4-3.1-1.2-6.6-5.8-10.2c-5.4-4.1-6.4-3.1-6-1.2
			c0.2,0.8,0.4,2.3,0,3.1c-1,3.1-3.1,4.8-5.4,6c-2.7,1.5-6,2.7-7.9,4.8C16.5,20.1,15.4,23,16.5,28z"/>
	</g>
	<g>
		<path d="M59,42.3c-0.4-0.4-1.2-1.2-2.1-1.5c0.8-6-2.3-12-8.1-14.9c1.2-1.9,1.5-4.1,0.8-6c-0.6-2.3-2.7-4.1-5-5
			c0-2.3-1.2-6-6.4-10.4c-3.7-3.1-6-3.7-7.5-2.9c-0.4,0.4-1.2,1.2-0.8,3.1c0.2,0.8,0.2,1.7,0,2.3c-0.4,1.7-1.5,3.1-2.7,3.9
			c-0.2-0.4-0.4-1.2-0.8-1.7c-1-1.5-2.5-2.5-4.4-3.1c-1-0.4-2.7-0.4-3.7,0C17.7,5,18.1,4,18.8,2.9c0.4-0.6,0.2-1.7-0.4-1.9
			c-0.8-0.4-1.7-0.2-1.9,0.4c-1.2,2.3-1.5,4.1-0.4,6.2c-2.5,2.5-3.3,6.2-1.5,9.1c0.4,0.4,1,1,1.5,1.5C14.6,20.1,14,23,14.6,27
			c-0.4,0.2-0.6,0.2-1,0.4c-3.1,1.2-5.4,2.9-6.8,5.2s-1.9,5-1.2,8.1c-0.8,0.4-1.5,1-2.3,1.5c-1.5,1.7-1.9,3.9-1,6l7.7,18.5
			c1.2,2.9,3.1,7.3,7.7,7.3h5.4c0,0,0,0,0.2,0h16l0,0l0,0h5.4c4.8,0,6.4-4.4,7.7-7.3l7.7-18.5C61.1,46.3,60.4,44,59,42.3L59,42.3z
			 M32.9,7.9c0.4-1.5,0.4-2.7,0.2-3.7c0.6,0.4,1.7,0.8,3.5,2.3c3.7,2.9,5.4,5.6,5.4,8.1c-0.2,2.3-1.9,4.1-3.3,5
			c-3.5,2.3-10.4,3.9-16,5.2c-1.7,0.4-3.3,0.8-5,1.2c-0.4-3.5,0.2-5.6,1.7-7.1c0.2-0.2,0.4-0.4,0.6-0.4c0.2-0.2,0.4-0.4,0.6-0.4
			c0.4-0.4,1-0.6,1.5-0.8c1.2-0.6,2.5-1.2,3.7-1.9c1.9-1,3.7-2.3,5-3.9C32,10.4,32.4,9.4,32.9,7.9z M21.7,8.9
			c1.2,0.2,2.1,0.8,2.7,1.9c0.4,0.4,0.4,1.2,0.6,1.9c-0.6,0.4-1.5,0.6-2.1,1c-1.5,0.8-3.3,1.5-4.6,2.7c-0.4-0.4-0.8-0.6-1-1
			c-1.2-1.9-0.8-4.6,1-5.8C19.4,8.9,20.6,8.7,21.7,8.9z M14.6,30.1c2.1-0.6,5-1.5,8.3-2.3c6-1.5,13.1-3.1,17-5.8
			c2.1-1.5,3.3-2.9,4.1-4.8c1.2,0.4,2.3,1.7,2.7,3.1c0.4,1.5,0,3.3-1.5,4.8l0,0l0,0c-3.1,3.1-8.5,5.4-12.9,7.7c-0.6,0.4-1,1-0.8,1.7
			c0.2,0.8,1.2,1.2,1.9,0.8c4.4-1.9,9.5-4.4,13.1-7.5c4.4,2.1,7.9,6.6,7.3,11.8c-1.5-0.4-3.3-0.2-5,0.4c-1.7,0.4-3.1,1.5-4.1,3.1
			c-1.5-2.3-4.1-3.7-6.8-3.7c-2.9,0-5.4,1.5-6.8,3.7c-1.5-2.3-4.1-3.7-6.8-3.7s-5.4,1.2-6.8,3.5c-0.8-1.5-2.3-2.5-4.1-3.1
			c-1.5-0.4-3.1-0.4-4.8-0.4C7.4,33.4,12.7,30.7,14.6,30.1L14.6,30.1z M17.7,71.2c-2.3,0-3.3-1.9-5-5.4L5.1,47.3
			c-0.4-1.2-0.2-2.1,0.4-3.1c0.4-0.4,2.3-1.9,4.8-1.9c0.6,0,1.5,0.2,2.3,0.4c1.5,0.4,3.3,1.9,3.7,5l5.2,23.2L17.7,71.2L17.7,71.2z
			 M38.3,71.2h-5.4v-4.6c0-0.8-0.6-1.5-1.5-1.5c-0.6,0-1.5,0.6-1.5,1.5v4.6h-5.4l-5.4-23.4c0.2-3.1,2.5-5.2,5.4-5.2s5.4,2.3,5.4,5.4
			v6c0,0.8,0.6,1.5,1.5,1.5c0.6,0,1.5-0.6,1.5-1.5v-6c0-3.1,2.3-5.4,5.4-5.4c3.1,0,5.4,2.3,5.4,5.2L38.3,71.2z M57.3,47.3l-7.7,18.5
			c-1.5,3.5-2.7,5.4-5,5.4H41l5.2-23.2c0.4-3.3,2.3-4.6,3.7-5c1.5-0.4,3.1-0.4,4.8,0.2c0.8,0.4,1.5,0.6,2.1,1.2
			C57.5,45,57.7,46.1,57.3,47.3L57.3,47.3z"/>
		<path d="M31.2,58.7c-0.8,0-1.5,0.6-1.5,1.5l0,0c0,0.8,0.6,1.5,1.5,1.5c0.6,0,1.5-0.6,1.5-1.5C32.7,59.1,32,58.7,31.2,58.7z"/>
	</g>
</g>
<g>
	<path class="st1" d="M84.4,64.1c-0.2,0.4-0.6,0.8-1.1,1c-0.5,0.3-1.1,0.4-1.9,0.4h-1.5V69h-1.8v-9.2h3.4c0.7,0,1.3,0.1,1.8,0.4
		c0.5,0.2,0.9,0.6,1.1,1c0.2,0.4,0.4,0.9,0.4,1.5C84.8,63.2,84.6,63.6,84.4,64.1z M82.5,63.7c0.2-0.2,0.4-0.6,0.4-1
		c0-0.9-0.5-1.3-1.5-1.3h-1.5V64h1.5C81.9,64,82.2,63.9,82.5,63.7z"/>
	<path class="st1" d="M95.7,67.3H92L91.4,69h-1.9l3.3-9.2h2.1l3.3,9.2h-1.9L95.7,67.3z M95.2,65.8L93.8,62l-1.3,3.8H95.2z"/>
	<path class="st1" d="M104.9,68.8c-0.5-0.2-0.9-0.5-1.2-0.9c-0.3-0.4-0.5-0.9-0.5-1.5h2c0,0.4,0.2,0.7,0.4,0.9
		c0.2,0.2,0.6,0.3,1,0.3c0.4,0,0.8-0.1,1-0.3s0.4-0.5,0.4-0.8c0-0.3-0.1-0.5-0.2-0.7c-0.2-0.2-0.4-0.3-0.6-0.4
		c-0.2-0.1-0.6-0.2-1-0.3c-0.6-0.2-1.1-0.3-1.5-0.5c-0.4-0.2-0.7-0.4-1-0.8c-0.3-0.3-0.4-0.8-0.4-1.4c0-0.5,0.1-1,0.4-1.4
		c0.3-0.4,0.7-0.7,1.1-0.9c0.5-0.2,1.1-0.3,1.7-0.3c0.9,0,1.7,0.2,2.3,0.7c0.6,0.5,0.9,1.1,1,1.9h-2c0-0.3-0.2-0.6-0.4-0.8
		s-0.6-0.3-1-0.3c-0.4,0-0.6,0.1-0.9,0.3s-0.3,0.5-0.3,0.8c0,0.2,0.1,0.4,0.2,0.6s0.4,0.3,0.6,0.4c0.2,0.1,0.6,0.2,1,0.3
		c0.6,0.2,1.1,0.4,1.5,0.5c0.4,0.2,0.7,0.4,1,0.8c0.3,0.4,0.4,0.8,0.4,1.4c0,0.5-0.1,0.9-0.4,1.4s-0.6,0.8-1.1,1
		c-0.5,0.2-1.1,0.4-1.7,0.4C106,69.1,105.4,69,104.9,68.8z"/>
	<path class="st1" d="M121.7,59.9v1.5h-2.4V69h-1.8v-7.7h-2.4v-1.5H121.7z"/>
	<path class="st1" d="M128.8,61.3v2.3h3.1v1.5h-3.1v2.4h3.5V69H127v-9.2h5.3v1.5H128.8z"/>
	<path class="st1" d="M139.8,67.6h3V69H138v-9.2h1.8V67.6z"/>
	<path class="st1" d="M149.8,61.3v2.3h3.1v1.5h-3.1v2.4h3.5V69H148v-9.2h5.3v1.5H149.8z"/>
	<path class="st1" d="M163.7,69l-2-3.6h-0.9V69H159v-9.2h3.4c0.7,0,1.3,0.1,1.8,0.4c0.5,0.2,0.9,0.6,1.1,1s0.4,0.9,0.4,1.4
		c0,0.6-0.2,1.2-0.5,1.6c-0.4,0.5-0.9,0.8-1.6,1l2.2,3.7H163.7z M160.8,64.1h1.5c0.5,0,0.9-0.1,1.1-0.4c0.2-0.2,0.4-0.6,0.4-1
		c0-0.4-0.1-0.7-0.4-1c-0.2-0.2-0.6-0.3-1.1-0.3h-1.5V64.1z"/>
	<path class="st1" d="M173.2,59.9V69h-1.8v-9.2H173.2z"/>
	<path class="st1" d="M184.7,67.3H181l-0.6,1.7h-1.9l3.3-9.2h2.1l3.3,9.2h-1.9L184.7,67.3z M184.2,65.8l-1.3-3.8l-1.3,3.8H184.2z"/>
</g>
</svg>
