<svg id="Capa_1" data-name="Capa 1" xmlns="http://www.w3.org/2000/svg" viewBox="0 0 77.6 82.08"><defs><style>.cls-1{fill:#e3ebff;}.cls-2{fill:#e0e0e0;}.cls-3{fill:#fafafa;}.cls-10,.cls-11,.cls-35,.cls-36,.cls-37,.cls-4,.cls-43,.cls-47,.cls-53{fill:#fff;}.cls-5{fill:#f0f0f0;}.cls-6{fill:#ebebeb;}.cls-7{fill:#f5f5f5;}.cls-8{fill:#ec6868;}.cls-9{opacity:0.3;}.cls-10,.cls-11,.cls-21,.cls-24,.cls-28,.cls-35,.cls-36,.cls-37,.cls-46,.cls-47,.cls-50,.cls-53,.cls-9{isolation:isolate;}.cls-10{opacity:0.45;}.cls-11{opacity:0.65;}.cls-12,.cls-46{fill:#ba68c8;}.cls-13{fill:#ff7b79;}.cls-14{fill:#ef8586;}.cls-15{fill:#37474f;}.cls-16{fill:#263238;}.cls-17{fill:#994a49;}.cls-18{fill:#b25655;}.cls-19{fill:#9e6767;}.cls-20{fill:#874c4c;}.cls-21,.cls-35,.cls-52{opacity:0.1;}.cls-22{fill:#323232;}.cls-23{fill:#f28f8f;}.cls-24{opacity:0.15;}.cls-25{fill:#e95556;}.cls-26{fill:#455a64;}.cls-27{fill:#e6e6e6;}.cls-28,.cls-53{opacity:0.5;}.cls-29{fill:#af6152;}.cls-30{fill:#c8856a;}.cls-31{fill:#e5a58f;}.cls-32{fill:#ffa8a7;}.cls-33{fill:#ffbda7;}.cls-34{fill:#7c4d4d;}.cls-36,.cls-50{opacity:0.2;}.cls-37{opacity:0.4;}.cls-38{fill:#f7a8c4;}.cls-39{fill:#ffe4e4;}.cls-40{fill:#ffbdbc;}.cls-41{fill:#f0997a;}.cls-42{opacity:0.1;}.cls-43{opacity:0.3;}.cls-44{fill:#f4acae;}.cls-45{fill:#f8c8c9;}.cls-46{opacity:0.8;}.cls-47{opacity:0.9;}.cls-48{opacity:0.7;}.cls-49{fill:#f29fa0;}.cls-51{fill:#fd7b79;}</style></defs><circle class="cls-1" cx="38.52" cy="42.75" r="37.19"/><g id="freepik--Shadows--inject-7"><path id="freepik--Shadow--inject-7" class="cls-2" d="M11.4,59.41c1.73,1,1.73,2.64,0,3.65a6.85,6.85,0,0,1-6.26,0c-1.72-1-1.72-2.64,0-3.65A6.85,6.85,0,0,1,11.4,59.41Z"/><ellipse id="freepik--shadow--inject-7-2" data-name="freepik--shadow--inject-7" class="cls-2" cx="16.69" cy="65.7" rx="9.5" ry="5.48"/><ellipse id="freepik--shadow--inject-7-3" data-name="freepik--shadow--inject-7" class="cls-2" cx="60.83" cy="65.7" rx="9.5" ry="5.48"/><ellipse id="freepik--shadow--inject-7-4" data-name="freepik--shadow--inject-7" class="cls-2" cx="36.69" cy="60.11" rx="9.5" ry="5.48"/><ellipse id="freepik--shadow--inject-7-5" data-name="freepik--shadow--inject-7" class="cls-2" cx="38.78" cy="67.62" rx="13.48" ry="7.78"/><path id="freepik--shadow--inject-7-6" data-name="freepik--shadow--inject-7" class="cls-2" d="M66.05,59.41c-1.73,1-1.73,2.64,0,3.65a6.82,6.82,0,0,0,6.25,0c1.73-1,1.73-2.64,0-3.65A6.82,6.82,0,0,0,66.05,59.41Z"/></g><g id="freepik--Pictures--inject-7"><g id="freepik--Picture--inject-7"><g id="freepik--Frame--inject-7"><polygon class="cls-3" points="5.79 36.76 6.12 36.96 12.97 33.01 12.63 32.81 5.79 36.76"/><polygon class="cls-4" points="12.63 32.81 6.12 36.57 6.12 16.35 12.63 12.59 12.63 32.81"/><path class="cls-5" d="M13.6,11.31,5.49,16V38.05l8.11-4.68ZM13,33,6.12,37V16.35l6.85-4Z"/><polygon class="cls-2" points="12.97 33.01 12.63 32.81 12.63 12.59 12.97 12.4 12.97 33.01"/><polygon class="cls-3" points="13.6 11.31 13.26 11.12 5.16 15.79 5.49 15.99 13.6 11.31"/><polygon class="cls-2" points="5.16 15.79 5.49 15.99 5.49 38.05 5.16 37.86 5.16 15.79"/></g><g id="freepik--Land--inject-7"><polygon class="cls-5" points="12.15 32.42 6.61 35.62 6.61 16.94 12.15 13.74 12.15 32.42"/></g><g id="freepik--land--inject-7-2" data-name="freepik--land--inject-7"><polygon class="cls-5" points="12.15 32.42 6.61 35.62 6.61 16.94 12.15 13.74 12.15 32.42"/></g><path class="cls-3" d="M6.61,30.25a5.21,5.21,0,0,0,.79,0,10,10,0,0,0,2.7-.59,6.88,6.88,0,0,1,2.05-.6v3.37l-.75.43a2.47,2.47,0,0,0-1-.57c-1.06-.28-2.16.25-3.25.38a2.79,2.79,0,0,1-.5,0Z"/><path class="cls-3" d="M6.61,23.66A7.37,7.37,0,0,0,10,22.08a5.7,5.7,0,0,0,1.28-2.74,14.16,14.16,0,0,1,.85-2.94v10l-.21.3a4.73,4.73,0,0,1-3.38,2.1c-.64,0-1.31-.12-1.94-.12Z"/><path class="cls-3" d="M6.61,20a3.79,3.79,0,0,0,1.23-3.44l-.06-.27L9.9,15c0,.14,0,.28,0,.42a13.13,13.13,0,0,1-.18,2.43A4.74,4.74,0,0,1,7.29,21a3.61,3.61,0,0,1-.68.28Z"/></g><g id="freepik--picture--inject-7-2" data-name="freepik--picture--inject-7"><g id="freepik--frame--inject-7-2" data-name="freepik--frame--inject-7"><polygon class="cls-3" points="16.88 35.63 17.21 35.83 24.06 31.88 23.72 31.68 16.88 35.63"/><polygon class="cls-4" points="23.72 31.68 17.21 35.44 17.21 15.22 23.72 11.46 23.72 31.68"/><path class="cls-5" d="M24.69,10.18l-8.11,4.68V36.92l8.11-4.68Zm-.63,21.7-6.84,3.95V15.22l6.84-4Z"/><polygon class="cls-2" points="24.06 31.88 23.72 31.68 23.72 11.46 24.06 11.27 24.06 31.88"/><polygon class="cls-3" points="24.68 10.18 24.35 9.99 16.24 14.66 16.58 14.86 24.68 10.18"/><polygon class="cls-2" points="16.24 14.66 16.58 14.86 16.58 36.92 16.24 36.73 16.24 14.66"/></g><g id="freepik--land--inject-7-3" data-name="freepik--land--inject-7"><polygon class="cls-5" points="23.23 31.29 17.7 34.49 17.7 15.81 23.23 12.62 23.23 31.29"/></g><g id="freepik--land--inject-7-4" data-name="freepik--land--inject-7"><polygon class="cls-5" points="23.23 31.29 17.7 34.49 17.7 15.81 23.23 12.62 23.23 31.29"/></g><path class="cls-3" d="M17.7,29.12a5.21,5.21,0,0,0,.79,0,10,10,0,0,0,2.7-.59,6.52,6.52,0,0,1,2-.59v3.35l-.75.43a2.51,2.51,0,0,0-1-.57c-1.07-.28-2.16.26-3.25.38a4.36,4.36,0,0,1-.51,0Z"/><path class="cls-3" d="M17.7,22.53A7.37,7.37,0,0,0,21.1,21a5.7,5.7,0,0,0,1.28-2.74,13.57,13.57,0,0,1,.85-2.94v10l-.21.3a4.72,4.72,0,0,1-3.38,2.1c-.65,0-1.31-.12-1.95-.12Z"/><path class="cls-3" d="M17.7,18.85a3.76,3.76,0,0,0,1.22-3.43,1.27,1.27,0,0,0-.06-.28L21,13.91c0,.14,0,.28,0,.42a13.12,13.12,0,0,1-.17,2.43,4.75,4.75,0,0,1-2.43,3.13,4,4,0,0,1-.67.29Z"/></g><g id="freepik--picture--inject-7-3" data-name="freepik--picture--inject-7"><g id="freepik--frame--inject-7-3" data-name="freepik--frame--inject-7"><polygon class="cls-3" points="71.71 36.76 71.37 36.96 64.53 33.01 64.86 32.81 71.71 36.76"/><polygon class="cls-4" points="64.86 32.81 71.37 36.57 71.37 16.35 64.86 12.59 64.86 32.81"/><path class="cls-5" d="M63.9,33.37,72,38.05V16l-8.1-4.68Zm.63-21,6.84,4V37L64.53,33Z"/><polygon class="cls-2" points="64.53 33.01 64.86 32.81 64.86 12.59 64.53 12.4 64.53 33.01"/><polygon class="cls-3" points="63.9 11.31 64.24 11.12 72.34 15.79 72 15.99 63.9 11.31"/><polygon class="cls-2" points="72.34 15.79 72 15.99 72 38.05 72.34 37.86 72.34 15.79"/></g><g id="freepik--land--inject-7-5" data-name="freepik--land--inject-7"><polygon class="cls-5" points="65.35 32.42 70.89 35.62 70.89 16.94 65.35 13.74 65.35 32.42"/></g><g id="freepik--land--inject-7-6" data-name="freepik--land--inject-7"><polygon class="cls-5" points="65.35 32.42 70.89 35.62 70.89 16.94 65.35 13.74 65.35 32.42"/></g><path class="cls-3" d="M70.88,30.25a5.21,5.21,0,0,1-.79,0,9.88,9.88,0,0,1-2.69-.59,6.88,6.88,0,0,0-2.05-.6v3.37l.75.43a2.44,2.44,0,0,1,1-.57c1.07-.28,2.16.25,3.25.38a2.9,2.9,0,0,0,.51,0Z"/><path class="cls-3" d="M70.88,23.66a7.33,7.33,0,0,1-3.39-1.58,5.71,5.71,0,0,1-1.29-2.74,13.55,13.55,0,0,0-.84-2.94l0,0v10l.22.3a4.73,4.73,0,0,0,3.38,2.1c.64,0,1.3-.12,1.94-.12Z"/><path class="cls-3" d="M70.88,20a3.78,3.78,0,0,1-1.22-3.44,2.61,2.61,0,0,1,.06-.27L67.59,15c0,.14,0,.28,0,.42a13.12,13.12,0,0,0,.17,2.43A4.78,4.78,0,0,0,70.21,21a3.53,3.53,0,0,0,.67.28Z"/></g><g id="freepik--picture--inject-7-4" data-name="freepik--picture--inject-7"><g id="freepik--frame--inject-7-4" data-name="freepik--frame--inject-7"><polygon class="cls-3" points="60.62 35.63 60.29 35.83 53.44 31.88 53.77 31.68 60.62 35.63"/><polygon class="cls-4" points="53.77 31.68 60.29 35.44 60.29 15.22 53.77 11.46 53.77 31.68"/><path class="cls-5" d="M52.81,32.24l8.11,4.68V14.86l-8.11-4.68Zm.63-21,6.85,4V35.83l-6.85-3.95Z"/><polygon class="cls-2" points="53.44 31.88 53.77 31.68 53.77 11.46 53.44 11.27 53.44 31.88"/><polygon class="cls-3" points="52.81 10.18 53.15 9.99 61.25 14.66 60.91 14.86 52.81 10.18"/><polygon class="cls-2" points="61.25 14.66 60.91 14.86 60.91 36.92 61.25 36.73 61.25 14.66"/></g><g id="freepik--land--inject-7-7" data-name="freepik--land--inject-7"><polygon class="cls-5" points="54.26 31.29 59.8 34.49 59.8 15.81 54.26 12.62 54.26 31.29"/></g><g id="freepik--land--inject-7-8" data-name="freepik--land--inject-7"><polygon class="cls-5" points="54.26 31.29 59.8 34.49 59.8 15.81 54.26 12.62 54.26 31.29"/></g><path class="cls-3" d="M59.8,29.12a5.21,5.21,0,0,1-.79,0,10,10,0,0,1-2.7-.59,6.58,6.58,0,0,0-2.05-.59v3.35l.75.43a2.59,2.59,0,0,1,1-.57c1.06-.28,2.16.26,3.25.38a4.07,4.07,0,0,0,.5,0Z"/><path class="cls-3" d="M59.8,22.53A7.37,7.37,0,0,1,56.4,21a5.7,5.7,0,0,1-1.28-2.74,14.16,14.16,0,0,0-.85-2.94v10l.21.3a4.7,4.7,0,0,0,3.38,2.1c.64,0,1.31-.12,1.94-.12Z"/><path class="cls-3" d="M59.8,18.85a3.77,3.77,0,0,1-1.23-3.43l.06-.28L56.5,13.91c0,.14,0,.28,0,.42a13.13,13.13,0,0,0,.18,2.43,4.74,4.74,0,0,0,2.42,3.13,4.48,4.48,0,0,0,.68.29Z"/></g></g><g id="freepik--Plants--inject-7"><g id="freepik--Plant--inject-7"><g id="freepik--Pot--inject-7"><g id="freepik--pot--inject-7-2" data-name="freepik--pot--inject-7"><path class="cls-6" d="M72,61.48c1.53-1.57,2.42-5.79.94-7H65.42c-1.49,1.25-.59,5.47.93,7l0,0,0,0,.14.13,0,0,.11.09.2.12a5,5,0,0,0,4.54,0h0l.2-.12.1-.09,0,0,.13-.12.06-.06Z"/><path class="cls-7" d="M66.07,53.94c-1.72,1-1.72,2.64,0,3.65a6.89,6.89,0,0,0,6.25,0c1.73-1,1.73-2.64,0-3.65A6.82,6.82,0,0,0,66.07,53.94Z"/><path class="cls-6" d="M66.9,54.42a1.42,1.42,0,0,0,0,2.68,5,5,0,0,0,4.59,0,1.42,1.42,0,0,0,0-2.68A5,5,0,0,0,66.9,54.42Z"/><path class="cls-8" d="M71.49,55.69a5.06,5.06,0,0,0-4.58,0,2.16,2.16,0,0,0-.76.71,2,2,0,0,0,.76.7,5,5,0,0,0,4.58,0,2,2,0,0,0,.76-.7A2.16,2.16,0,0,0,71.49,55.69Z"/><path class="cls-9" d="M71.49,55.69a5.06,5.06,0,0,0-4.58,0,2.16,2.16,0,0,0-.76.71,2,2,0,0,0,.76.7,5,5,0,0,0,4.58,0,2,2,0,0,0,.76-.7A2.16,2.16,0,0,0,71.49,55.69Z"/></g><g id="freepik--plants--inject-7-2" data-name="freepik--plants--inject-7"><path class="cls-8" d="M66.64,45.58l2,1.69-1.94-1A5.46,5.46,0,0,0,67,48.17a11.15,11.15,0,0,1,1.49,1.15L67,48.66a7.57,7.57,0,0,0,.22,2.53A13.35,13.35,0,0,0,67.94,53a5.8,5.8,0,0,0,.41.78l0,.05c.35-.19.72-.37,1.1-.54a11,11,0,0,0,.78-2.78c.59-3.94-2.32-6.33-4.69-7.18A7.12,7.12,0,0,1,66.64,45.58Z"/><path class="cls-10" d="M66.64,45.58l2,1.69-1.94-1A5.46,5.46,0,0,0,67,48.17a11.15,11.15,0,0,1,1.49,1.15L67,48.66a7.57,7.57,0,0,0,.22,2.53A13.35,13.35,0,0,0,67.94,53a5.8,5.8,0,0,0,.41.78l0,.05c.35-.19.72-.37,1.1-.54a11,11,0,0,0,.78-2.78c.59-3.94-2.32-6.33-4.69-7.18A7.12,7.12,0,0,1,66.64,45.58Z"/><path class="cls-4" d="M68.34,45.8a4,4,0,0,1,.79,1.56,7.74,7.74,0,0,1,.29,1.72,7.46,7.46,0,0,1-.56,3.43h0a.05.05,0,0,0,.1,0h0a7.49,7.49,0,0,0,.52-3.47,8.4,8.4,0,0,0-.33-1.73A3.79,3.79,0,0,0,68.34,45.8Z"/><path class="cls-8" d="M75.17,47.12h0a33.65,33.65,0,0,0-1.68,3.54l-2.11.74H73l-.62,1.51-2,.82,1.71,0a4.37,4.37,0,0,1-1.24,2.6c-.6.49-.88.55-1.14.45s-.53-.56-.77-1.24a6.88,6.88,0,0,1,.17-3.6,4.24,4.24,0,0,1,.5-1.13A9.39,9.39,0,0,1,75.17,47.12Z"/><path class="cls-11" d="M75.17,47.12h0a33.65,33.65,0,0,0-1.68,3.54l-2.11.74H73l-.62,1.51-2,.82,1.71,0a4.37,4.37,0,0,1-1.24,2.6c-.6.49-.88.55-1.14.45s-.53-.56-.77-1.24a6.88,6.88,0,0,1,.17-3.6,4.24,4.24,0,0,1,.5-1.13A9.39,9.39,0,0,1,75.17,47.12Z"/><path class="cls-4" d="M73,48.24a9.12,9.12,0,0,0-2.64,2.61,6,6,0,0,0-.76,1.72,5.61,5.61,0,0,0-.16,1.87h0a7.64,7.64,0,0,1,.26-1.84,7,7,0,0,1,.74-1.7A9.18,9.18,0,0,1,73,48.24m0,0h0Z"/><path class="cls-8" d="M61.7,47.86h0c.22,0,.43,0,.65,0a10.16,10.16,0,0,1,2.5.61c.3.11.6.24.89.38l.44.22a7.1,7.1,0,0,1,1.91,1.45,5,5,0,0,1,.67.92l.06.13h0a3.23,3.23,0,0,1,.15.34A6.26,6.26,0,0,1,69.54,55a3.9,3.9,0,0,1-.43,1.74l-.06,0c-.22.14-.55.06-1.19-.3A4.57,4.57,0,0,1,66.11,54l1.76-.29-2.26-.46-.92-1.43,1.69-.3-2.3-.36a34.94,34.94,0,0,0-2.38-3.3Z"/><path class="cls-11" d="M61.64,47.86h0a3.5,3.5,0,0,1,.65,0,10.16,10.16,0,0,1,2.5.61c.3.11.6.23.89.37l.44.23A7.32,7.32,0,0,1,68,50.54a5.06,5.06,0,0,1,.66.93.83.83,0,0,0,.07.13h0c0,.11.1.23.14.34A6.26,6.26,0,0,1,69.48,55a3.9,3.9,0,0,1-.43,1.74l-.06,0c-.22.13-.55.05-1.18-.3A4.64,4.64,0,0,1,66.05,54l1.76-.3-2.26-.45-.92-1.43,1.69-.31L64,51.16a32.11,32.11,0,0,0-2.38-3.3Z"/><path class="cls-12" d="M62.35,47.89a10.16,10.16,0,0,1,2.5.61c.3.11.6.24.89.38l.44.22a7.1,7.1,0,0,1,1.91,1.45,5,5,0,0,1,.67.92l.06.13h0a3.23,3.23,0,0,1,.15.34A6.26,6.26,0,0,1,69.54,55a3.9,3.9,0,0,1-.43,1.74l-.06,0a.39.39,0,0,1-.14.05,10.37,10.37,0,0,0-1.28-5.29,10.24,10.24,0,0,0-5.93-3.69h0A4.75,4.75,0,0,1,62.35,47.89Z"/><path class="cls-8" d="M62.35,47.89a10.16,10.16,0,0,1,2.5.61c.3.11.6.24.89.38l.44.22a7.1,7.1,0,0,1,1.91,1.45,5,5,0,0,1,.67.92l.06.13h0a3.23,3.23,0,0,1,.15.34A6.26,6.26,0,0,1,69.54,55a3.9,3.9,0,0,1-.43,1.74l-.06,0a.39.39,0,0,1-.14.05,10.37,10.37,0,0,0-1.28-5.29,10.24,10.24,0,0,0-5.93-3.69h0A4.75,4.75,0,0,1,62.35,47.89Z"/><path class="cls-4" d="M68.92,56.85a9.93,9.93,0,0,0-.17-2.55,8.34,8.34,0,0,0-.84-2.43A7.51,7.51,0,0,0,66.19,50,9.81,9.81,0,0,0,64,48.63h0m0,0a13.07,13.07,0,0,1,2.12,1.42,9.36,9.36,0,0,1,.92.86,5.73,5.73,0,0,1,.78,1,8.13,8.13,0,0,1,.88,2.38,9.85,9.85,0,0,1,.22,2.54h0Z"/></g></g></g><g id="freepik--plant--inject-7-2" data-name="freepik--plant--inject-7"><g id="freepik--pot--inject-7-3" data-name="freepik--pot--inject-7"><g id="freepik--pot--inject-7-4" data-name="freepik--pot--inject-7"><path class="cls-6" d="M5.54,61.48c-1.52-1.57-2.42-5.79-.93-7h7.56c1.47,1.25.59,5.47-.93,7l-.05.05,0,0L11,61.7l0,0-.12.09-.19.13a5,5,0,0,1-4.54,0h0l-.2-.13-.11-.08,0,0-.14-.12-.06-.06Z"/><path class="cls-7" d="M11.51,53.94c1.73,1,1.73,2.64,0,3.65a6.89,6.89,0,0,1-6.25,0c-1.72-1-1.72-2.64,0-3.65A6.82,6.82,0,0,1,11.51,53.94Z"/><path class="cls-6" d="M10.68,54.42a1.42,1.42,0,0,1,0,2.68,5,5,0,0,1-4.58,0,1.42,1.42,0,0,1,0-2.68A5,5,0,0,1,10.68,54.42Z"/><path class="cls-8" d="M6.09,55.69a5.06,5.06,0,0,1,4.58,0,2.16,2.16,0,0,1,.76.71,2,2,0,0,1-.75.7,5,5,0,0,1-4.58,0,2,2,0,0,1-.76-.7A2.21,2.21,0,0,1,6.09,55.69Z"/><path class="cls-9" d="M6.1,57.21a5,5,0,0,1,4.58,0,2.07,2.07,0,0,1,.76.71,2.13,2.13,0,0,1-.76.7,5,5,0,0,1-4.58,0,2.31,2.31,0,0,1-.76-.7A2.07,2.07,0,0,1,6.1,57.21Z"/></g><g id="freepik--plants--inject-7-3" data-name="freepik--plants--inject-7"><path class="cls-8" d="M11,45.58,9,47.27l1.94-1a5.42,5.42,0,0,1-.27,1.88,13,13,0,0,0-1.5,1.15l1.49-.65a7.37,7.37,0,0,1-.21,2.53A16.41,16.41,0,0,1,9.65,53a8.14,8.14,0,0,1-.41.77l0,.05c-.36-.19-.72-.36-1.1-.53a11.2,11.2,0,0,1-.79-2.79c-.59-3.94,2.32-6.33,4.7-7.18A7.06,7.06,0,0,0,11,45.58Z"/><path class="cls-10" d="M11,45.57,9,47.26l1.94-1a5.42,5.42,0,0,1-.27,1.88A12,12,0,0,0,9.15,49.3l1.49-.65a7.57,7.57,0,0,1-.22,2.53,13.89,13.89,0,0,1-.77,1.75,5.8,5.8,0,0,1-.41.78l0,0c-.35-.19-.72-.36-1.1-.54a11,11,0,0,1-.78-2.78C6.74,46.5,9.65,44.11,12,43.26A7.27,7.27,0,0,0,11,45.57Z"/><path class="cls-4" d="M9.25,45.8a3.85,3.85,0,0,0-.79,1.56,8.38,8.38,0,0,0-.3,1.72,7.46,7.46,0,0,0,.57,3.43h0a.05.05,0,0,1,0,.07.07.07,0,0,1-.08,0h0a7.48,7.48,0,0,1-.51-3.47,7.77,7.77,0,0,1,.32-1.73A3.93,3.93,0,0,1,9.25,45.8Z"/><path class="cls-13" d="M2.42,47.12h0A33.65,33.65,0,0,1,4.1,50.66l2.1.74H4.55l.62,1.51,2.06.82-1.72,0a4.41,4.41,0,0,0,1.25,2.6c.59.49.88.55,1.13.45s.54-.56.78-1.24a7,7,0,0,0-.17-3.6A4.61,4.61,0,0,0,8,50.78,9.37,9.37,0,0,0,2.42,47.12Z"/><path class="cls-11" d="M2.42,47.12h0A33.65,33.65,0,0,1,4.1,50.66l2.1.74H4.55l.62,1.51,2.06.82-1.72,0a4.41,4.41,0,0,0,1.25,2.6c.59.49.88.55,1.13.45s.54-.56.78-1.24a7,7,0,0,0-.17-3.6A4.61,4.61,0,0,0,8,50.78,9.37,9.37,0,0,0,2.42,47.12Z"/><path class="cls-4" d="M4.56,48.24a9,9,0,0,1,2.65,2.61A6,6,0,0,1,8,52.57a5.88,5.88,0,0,1,.16,1.87h0a7.65,7.65,0,0,0-.27-1.84,6.27,6.27,0,0,0-.74-1.7,9,9,0,0,0-2.57-2.66m0,0h0Z"/><path class="cls-12" d="M15.89,47.86h0q-.33,0-.66,0a10.38,10.38,0,0,0-2.5.61c-.29.11-.59.24-.88.38l-.45.22a7.31,7.31,0,0,0-1.92,1.45,4.56,4.56,0,0,0-.66.92c0,.05-.05.09-.07.13h0l-.15.34A6.25,6.25,0,0,0,8,55a4.08,4.08,0,0,0,.42,1.74l.07,0c.21.14.55.06,1.18-.3A4.59,4.59,0,0,0,11.48,54l-1.76-.29L12,53.25l.91-1.43-1.68-.3,2.29-.36a35,35,0,0,1,2.39-3.3Z"/><path class="cls-14" d="M15.89,47.86h0q-.33,0-.66,0a10.38,10.38,0,0,0-2.5.61c-.29.11-.59.24-.88.38l-.45.22a7.31,7.31,0,0,0-1.92,1.45,4.56,4.56,0,0,0-.66.92c0,.05-.05.09-.07.13h0l-.15.34A6.25,6.25,0,0,0,8,55a4.08,4.08,0,0,0,.42,1.74l.07,0c.21.14.55.06,1.18-.3A4.59,4.59,0,0,0,11.48,54l-1.76-.29L12,53.25l.91-1.43-1.68-.3,2.29-.36a35,35,0,0,1,2.39-3.3Z"/><path class="cls-12" d="M15.23,47.89a10.38,10.38,0,0,0-2.5.61c-.29.11-.59.24-.88.38l-.45.22a7.31,7.31,0,0,0-1.92,1.45,5,5,0,0,0-.66.92.54.54,0,0,1-.07.13h0c-.05.12-.1.23-.14.34A6.26,6.26,0,0,0,8,55a3.9,3.9,0,0,0,.43,1.74l.06,0a.34.34,0,0,0,.14.05,10.36,10.36,0,0,1,1.27-5.29,10.27,10.27,0,0,1,5.94-3.69h0A4.75,4.75,0,0,0,15.23,47.89Z"/><path class="cls-8" d="M15.23,47.89a10.38,10.38,0,0,0-2.5.61c-.29.11-.59.24-.88.38l-.45.22a7.31,7.31,0,0,0-1.92,1.45,5,5,0,0,0-.66.92.54.54,0,0,1-.07.13h0c-.05.12-.1.23-.14.34A6.26,6.26,0,0,0,8,55a3.9,3.9,0,0,0,.43,1.74l.06,0a.34.34,0,0,0,.14.05,10.36,10.36,0,0,1,1.27-5.29,10.27,10.27,0,0,1,5.94-3.69h0A4.75,4.75,0,0,0,15.23,47.89Z"/><path class="cls-4" d="M8.67,56.85a9.92,9.92,0,0,1,.16-2.55,8.36,8.36,0,0,1,.85-2.43A7.15,7.15,0,0,1,11.4,50a9.81,9.81,0,0,1,2.2-1.32h0m0,0a13.07,13.07,0,0,0-2.12,1.42,9.47,9.47,0,0,0-.93.86,5.8,5.8,0,0,0-.78,1,8.13,8.13,0,0,0-.88,2.38,9.89,9.89,0,0,0-.22,2.54h0Z"/></g></g></g></g><g id="freepik--character-3--inject-7"><g id="freepik--Chair--inject-7"><path class="cls-15" d="M60.44,49V67.81a.22.22,0,0,0,.13.21.48.48,0,0,0,.49,0,.23.23,0,0,0,.14-.21V49Z"/><path class="cls-15" d="M60.81,63.52a8.43,8.43,0,0,1-4.1-1,2.6,2.6,0,0,1,0-4.91,9,9,0,0,1,8.2,0,2.6,2.6,0,0,1,0,4.91h0A8.37,8.37,0,0,1,60.81,63.52Zm0-6.58a8.18,8.18,0,0,0-4,.94,2.31,2.31,0,0,0,0,4.4,8.75,8.75,0,0,0,7.91,0h0a2.31,2.31,0,0,0,0-4.4A8.08,8.08,0,0,0,60.81,56.94Z"/><path class="cls-15" d="M57.48,47.79,54.25,65.57h0a.22.22,0,0,0,.13.23.5.5,0,0,0,.5,0,.26.26,0,0,0,.13-.2l3.24-17.81Z"/><path class="cls-15" d="M67.41,65.58l-3.23-17.7V47.8h-.76l3.24,17.81a.25.25,0,0,0,.13.2.55.55,0,0,0,.5,0A.25.25,0,0,0,67.41,65.58Z"/><path class="cls-16" d="M57.12,44.07a8,8,0,0,1,7.28,0,2.56,2.56,0,0,1,1.5,2.1v.94a2.57,2.57,0,0,1-1.5,2.1,8,8,0,0,1-7.28,0,2.57,2.57,0,0,1-1.5-2.1v-.94A2.56,2.56,0,0,1,57.12,44.07Z"/><path class="cls-12" d="M57.12,43.62a8,8,0,0,1,7.28,0,2.56,2.56,0,0,1,1.5,2.1v.93a2.56,2.56,0,0,1-1.5,2.1,8,8,0,0,1-7.28,0,2.56,2.56,0,0,1-1.5-2.1v-.92A2.56,2.56,0,0,1,57.12,43.62Z"/><path class="cls-17" d="M57.12,43.62a8,8,0,0,1,7.28,0,2.56,2.56,0,0,1,1.5,2.1v.93a2.56,2.56,0,0,1-1.5,2.1,8,8,0,0,1-7.28,0,2.56,2.56,0,0,1-1.5-2.1v-.92A2.56,2.56,0,0,1,57.12,43.62Z"/><ellipse class="cls-12" cx="60.76" cy="45.72" rx="5.14" ry="2.97"/><ellipse class="cls-18" cx="60.76" cy="45.72" rx="5.14" ry="2.97"/></g><g id="freepik--Character--inject-7"><g id="freepik--Top--inject-7"><g id="freepik--Arm--inject-7"><path class="cls-19" d="M47.94,29.53a.78.78,0,0,1,.37-.05,2.09,2.09,0,0,1,.43.11c.22.07.66.21.89.26a1.6,1.6,0,0,0,.61.07c.07,0,.21-.06.11-.13a3,3,0,0,1-.4-.3.57.57,0,0,1-.2-.44.24.24,0,0,1,0-.14c.05-.05.1,0,.15,0l.16.07.35.15a4.66,4.66,0,0,1,2,1.12A4.32,4.32,0,0,1,53,31.44c.24.71,1.12,2.67,1.12,2.67s1.74-1.65,2.57-2.51a7.64,7.64,0,0,1,2.15-1.86,3.54,3.54,0,0,1,1.4-.32l-1.74,4.64S56.27,36,55,36.9c-1.08.81-1.65.82-2,.61-.49-.34-.73-.5-1.31-3.82,0-.24-.1-.47-.16-.7-.13-.48-.35-.94-.56-1a11,11,0,0,1-1.51-.46,3.14,3.14,0,0,1-.69-.39,1.06,1.06,0,0,1-.29-.27c0-.1,0-.23-.11-.33s-.12-.11-.16-.18-.15-.34-.3-.44-.2-.09-.22-.19a.21.21,0,0,1,.12-.2Z"/><path class="cls-20" d="M54.16,34.11a4.75,4.75,0,0,1,.4,1.77,3,3,0,0,0-.15-2Z"/><path class="cls-20" d="M50.75,30.23a2.3,2.3,0,0,0,.89.86,1.36,1.36,0,0,1-.6-.3A.73.73,0,0,1,50.75,30.23Z"/></g><path class="cls-13" d="M58.32,37.62a.51.51,0,0,1-.16-.44,7.31,7.31,0,0,0,0-1.68,2.63,2.63,0,0,1-.51-3,9.18,9.18,0,0,1,2.65-3H61a26.37,26.37,0,0,1,2.82.24,11,11,0,0,1,1.71.43,7.74,7.74,0,0,0-.2,3.14,5.77,5.77,0,0,0,.7,1.73,17.66,17.66,0,0,0-.42,2.59.52.52,0,0,1-.2.42c-.08.3-.1.54-.18.84C61.17,39.84,58.94,38.75,58.32,37.62Z"/><path class="cls-21" d="M60.28,35.52a2.19,2.19,0,0,0,2.09.59,2,2,0,0,0,1.7-1.32,1.67,1.67,0,0,1-1.62,1.67A1.87,1.87,0,0,1,60.28,35.52Z"/><path class="cls-22" d="M65.22,23.38a.82.82,0,0,0,.69-.28.47.47,0,0,1,.2-.12l.19,0a1,1,0,0,0,.41,0,.64.64,0,0,0,.25-.15.8.8,0,0,0,.29-.51,1.24,1.24,0,0,0-.18-.68c0-.1-.06,0,0-.12s.09-.13.11-.22a1.13,1.13,0,0,0-.11-.7,1,1,0,0,0-.51-.44c-.21-.09-.51,0-.67-.2a2,2,0,0,1-.18-.26,1.07,1.07,0,0,0-.14-.16.89.89,0,0,0-.43-.22,1.14,1.14,0,0,0-.78.19,3.25,3.25,0,0,1-.29.23.66.66,0,0,1-.34,0,.57.57,0,0,0-.34.08.49.49,0,0,0-.21.36c0,.16.09.32.05.48s-.15.31-.19.48a.94.94,0,0,0,0,.5,2.14,2.14,0,0,0,.71,1c.12.09.23.17.33.26l.15.13A2.38,2.38,0,0,0,65.22,23.38Z"/><path class="cls-8" d="M63.09,20.78c.06-.14,0-.2.23-.24a2.65,2.65,0,0,1,1.86.77A2,2,0,0,1,66.11,23c-.06.18-.18.05-.24.26s-.15.2-.23.15-2.48-2.1-2.6-2.29S63,20.93,63.09,20.78Z"/><path class="cls-22" d="M65.61,26.72a.44.44,0,0,1-.15.12c-.1.05-.19.08-.24.19s0,.25,0,.36-.32.17-.46.22a.3.3,0,0,0-.21.17c-.07.11,0,.23-.15.31s-.21.06-.3.12-.12.15-.18.24c-.27.34-.88-.06-1.1-.27a2.94,2.94,0,0,1-.63-.93,10.52,10.52,0,0,1-.28-1.71A2.48,2.48,0,0,0,61,24.42a3.61,3.61,0,0,0-.51-.36.91.91,0,0,0-.16-.11l-.19,0a.9.9,0,0,0-.37.07l-.28.1a1,1,0,0,1-.34,0c-.17,0-.4-.2-.39-.41a.23.23,0,0,0,0,.26.72.72,0,0,1,.08.32.38.38,0,0,1-.25.33c-.25.05-.4-.11-.37-.28a.16.16,0,0,0,.21.11.15.15,0,0,0,.12-.17c0-.2-.18-.27-.3-.46s-.16-.4,0-.58.4-.21.37-.48-.12-.29-.12-.45a.52.52,0,0,1,.2-.4,2.48,2.48,0,0,1,.57-.27,1.17,1.17,0,0,0,.3-.19c.07-.09.07-.22.16-.31s.5,0,.73-.13.25-.25.41-.31.5.09.76.07l.36-.1a1,1,0,0,1,.43,0c.15,0,.18.21.3.3s.12,0,.26-.07a.81.81,0,0,1,.81.2,1.34,1.34,0,0,1,.11.14s0,.09.07.13a.41.41,0,0,0,.22.17,4.69,4.69,0,0,0,.54.11.88.88,0,0,1,.46.52l.06.17a1.07,1.07,0,0,0,.15.22l.22.2a.91.91,0,0,1,.24.38c.05.15,0,.27,0,.41s.34.41.35.69-.29.41-.28.66.29.56,0,.81-.4.22-.35.51S65.72,26.58,65.61,26.72Z"/><path class="cls-19" d="M60.09,22.39c-.62.26-1.1.64-1.1,2.08,0,.29-.14.63-.17,1-.13,1.92.6,2.63.93,2.79A3.1,3.1,0,0,0,61,28.5l.08,1.24A6,6,0,0,0,60,32.18a6.18,6.18,0,0,0,3.88-1.87V27a.71.71,0,0,0,.64.12,1.14,1.14,0,0,0,.63-1.68.78.78,0,0,0-1.26,0,2.85,2.85,0,0,0-.77-2.56A2.71,2.71,0,0,0,60.09,22.39Z"/><path class="cls-20" d="M61.59,26.71a.47.47,0,0,1-.32.56h-.05a.55.55,0,0,1-.63-.37Z"/><path class="cls-23" d="M61.06,27.29a.4.4,0,0,1,.38-.42h0l.14,0a.46.46,0,0,1-.38.39Z"/><path class="cls-16" d="M59.9,25a.27.27,0,0,1-.29.25.28.28,0,0,1-.25-.3.27.27,0,0,1,.29-.25.26.26,0,0,1,.25.29Z"/><path class="cls-16" d="M61.89,25.21a.29.29,0,0,1-.3.25.27.27,0,0,1-.25-.3.28.28,0,0,1,.29-.25.29.29,0,0,1,.26.3Z"/><path class="cls-20" d="M61,28.49a3.27,3.27,0,0,0,2.59-1.18,1.81,1.81,0,0,1-.46.9,5.13,5.13,0,0,1-2.1.72Z"/><path class="cls-16" d="M61.61,24.24l.59.47a.38.38,0,0,0-.07-.52h0A.37.37,0,0,0,61.61,24.24Z"/><path class="cls-16" d="M59.34,24.4l.71-.23a.39.39,0,0,0-.48-.23.34.34,0,0,0-.23.44Z"/><path class="cls-16" d="M64.26,25.11c0,.05-.09.09-.13.11a1,1,0,0,0-.26.25.37.37,0,0,0-.07.25,1.1,1.1,0,0,1,0,.18c0,.14-.17.17-.17.32a.53.53,0,0,0,.05.18.51.51,0,0,1,0,.21.37.37,0,0,1-.24.31.33.33,0,0,1-.34-.11.2.2,0,0,0,.27-.06.17.17,0,0,0,0-.12.49.49,0,0,0-.08-.23.34.34,0,0,1,0-.2c0-.15.06-.23-.05-.35s-.19-.21-.19-.34.11-.25.16-.4.05-.19,0-.24-.18,0-.24,0a.21.21,0,0,0-.13.17,1.79,1.79,0,0,1,0,.23.35.35,0,0,1-.26.3s-.09,0-.1.09a.17.17,0,0,0,.05.15.2.2,0,0,1-.12-.2c0-.12.09-.17.18-.23s0-.34,0-.51.29-.33.29-.56a1.6,1.6,0,0,0-.14-.42,2,2,0,0,1-.09-.37.87.87,0,0,0-.44-.61,1.21,1.21,0,0,0-.92,0,.28.28,0,0,1,0,.16.57.57,0,0,1-.44.17.42.42,0,0,0,.09.27.28.28,0,0,1,0,.29c-.09.16-.4.05-.49.21a.14.14,0,0,0,0,.19.27.27,0,0,1-.13-.36.28.28,0,0,1,.14-.12c.06,0,.14,0,.17-.11a.11.11,0,0,0,0-.08c0-.12-.16-.18-.27-.24s-.22-.17-.19-.3.19-.17.31-.23a.6.6,0,0,0-.6-.14,1.32,1.32,0,0,0-.78.66,2,2,0,0,1,2.38-1.5,3.87,3.87,0,0,1,1.93,1,4.55,4.55,0,0,1,.61.83,1.32,1.32,0,0,1,.21.45,1.54,1.54,0,0,1,.06.52A2,2,0,0,1,64.26,25.11Z"/></g><g id="freepik--Bottom--inject-7"><path class="cls-22" d="M57.05,52.51a1.51,1.51,0,0,1,1.44.57,2.08,2.08,0,0,1-.15,1.39,4.79,4.79,0,0,0-.18,2c.08.9.42,1.69,0,2.35-.66,1-2.3,2-2.35.88a14.35,14.35,0,0,1,.13-2.26c.15-1.62.25-3.25.25-3.25Z"/><path class="cls-24" d="M58.23,52.81a6.44,6.44,0,0,1-.81,3.06,18.65,18.65,0,0,0-1.66,3.63,9.12,9.12,0,0,1,.15-1.72v-.2a.59.59,0,0,1,0-.13h0c0-.51.09-1,.12-1.48s0-.7.07-1,0-.26,0-.37a.61.61,0,0,1,0-.14c0-.18,0-.28,0-.28L57,52.51l.14,0A1.58,1.58,0,0,1,58.23,52.81Z"/><path class="cls-19" d="M57.36,53.78a15.76,15.76,0,0,0,0,2.38A2.84,2.84,0,0,1,57,58c-.3.45-1.11.74-1.08-.14,0-.63.27-3.67.27-3.67Z"/><path class="cls-20" d="M56.14,58.4c-.14-.06-.23-.23-.22-.54,0-.15,0-.41,0-.74s.07-.8.1-1.17,0-.7.07-1,0-.27,0-.37,0-.11,0-.15,0-.27,0-.28h0l1.17-.41a17.22,17.22,0,0,0,0,2.27C56.94,56.8,56.46,57.67,56.14,58.4Z"/><path class="cls-19" d="M50.45,45.26c.51-.71.86-1,3.08-2.57,1.44-1,2.94-1.93,4.48-2.79l2.59,2.93-2.4,2.26-3.64,2.25a5,5,0,0,1,.94,1.45c.12.3,1.24,3.56,1.24,3.56l-1.9,2.19S52.18,50.36,51,48.33,50.26,45.53,50.45,45.26Z"/><path class="cls-15" d="M58.24,38.52c-.14.9-1,1.41-2.58,2.33S51,44,50.36,45.05s-.37,1.76.39,3.25S55,54.87,55,54.87l1.91-2.26a37,37,0,0,0-1.46-4.31,2.68,2.68,0,0,0-.71-.92l5.57-2.82,1-3.24Z"/><path class="cls-16" d="M55,54.86l1.91-2.26a36.33,36.33,0,0,0-1.46-4.3,3.37,3.37,0,0,0-.44-.67,4.45,4.45,0,0,0-.91,2.62c-.09.72-.18,1.86-.25,2.89Z"/><path class="cls-16" d="M58.14,40.94c0,1.3.1,2.29.1,2.29l-3,3.88,5.05-2.55Z"/><path class="cls-16" d="M54.24,42.89a16.18,16.18,0,0,0-2,1.55,6.43,6.43,0,0,0-.81.92,2.57,2.57,0,0,0-.27.52.86.86,0,0,0-.05.27,1.33,1.33,0,0,0,0,.28,6.59,6.59,0,0,0,.39,1.16c.16.38.34.76.52,1.13.37.75.75,1.49,1.15,2.23a21.57,21.57,0,0,1-1.33-2.13c-.21-.37-.39-.74-.57-1.13a5.75,5.75,0,0,1-.41-1.21,1.24,1.24,0,0,1,0-.33A1,1,0,0,1,51,45.8a2.19,2.19,0,0,1,.32-.58,5.46,5.46,0,0,1,.87-.93A11.66,11.66,0,0,1,54.24,42.89Z"/><path class="cls-22" d="M55.67,60.62c.17,0,.2.28.33.65a1.94,1.94,0,0,1,.13,1.14c-.11.49-.72.73-1.19,1.3-.93,1.12-.93,1.93-1.68,2.36a3,3,0,0,1-2.8.25c-1-.6-.4-.82.3-1.43a6.43,6.43,0,0,0,1.18-1.37Z"/><path class="cls-19" d="M51.27,64.39c.11-.14.44-.55.57-.73a12.05,12.05,0,0,0,1.33-2.76,22.07,22.07,0,0,0,.56-3.08h0s.83-8,1.13-9.25S59,43.43,59,43.43s-.74-1.53-.56-5.16c1.91,1.24,4.35,1.32,7.07.78.3,1.34,1,2.72.64,4.15s-1.72,2.71-3.54,4c-1.5,1.07-3.53,2.54-3.95,2.85s-.59.58-.56,1.45,0,2.31-1.31,5.3A26.92,26.92,0,0,0,55.66,60a2,2,0,0,0,0,.81,1,1,0,0,1-.17.59c-.12.18-.26.36-.4.53-.38.46-1.1,1.5-1.59,2.24a1.83,1.83,0,0,1-2.3.71C51.07,64.76,51.18,64.52,51.27,64.39Z"/><path class="cls-15" d="M65.59,38.82a14.53,14.53,0,0,1,.77,3,4.54,4.54,0,0,1-1.7,3.82c-1.7,1.59-5.93,4.52-6.11,5s-.3,3.79-.68,4.77c-.7,1.84-1.76,4.14-1.76,4.14a3,3,0,0,1-2.69-.29s.52-4.5.73-6.4c.36-3.25.38-4.26,1-5.09s.81-1.09.81-1.09l2.78-3.33a11,11,0,0,1-.57-2.36,9.69,9.69,0,0,1,.1-2.42S62.19,40,65.59,38.82Z"/><path class="cls-16" d="M64.86,42.82l0-.06c.59-1,.38-1.9.11-3.1,0-.2-.09-.41-.14-.63l-.13,0c0,.21.1.43.14.63a3.82,3.82,0,0,1-.07,3c-.9-.43-.77-1.89-.68-2.77q0-.23,0-.39H64c0,.11,0,.24,0,.39-.09.91-.23,2.42.74,2.9a3,3,0,0,1-.35.45c-.68.78-2.42,2.42-4,3.88-1.21,1.14-2.26,2.14-2.49,2.42a7.17,7.17,0,0,0-.59,2.73,30.52,30.52,0,0,1-.58,3.42,17.68,17.68,0,0,1-1.63,4h.16a17.91,17.91,0,0,0,1.59-4,28.56,28.56,0,0,0,.58-3.43A7.92,7.92,0,0,1,58,49.61c.23-.28,1.27-1.27,2.48-2.41,1.54-1.46,3.28-3.11,4-3.89a3.41,3.41,0,0,0,.37-.48Z"/><path class="cls-16" d="M62.59,39.92a4.1,4.1,0,0,1,0,1.26,5.84,5.84,0,0,1-.31,1.23,6.25,6.25,0,0,1-.54,1.14,5.63,5.63,0,0,1-.75,1c.2-.37.4-.74.57-1.11s.34-.75.48-1.13a10,10,0,0,0,.35-1.18A8.41,8.41,0,0,0,62.59,39.92Z"/><path class="cls-16" d="M62.88,39.92a4.12,4.12,0,0,1,.29,1A6.23,6.23,0,0,1,63.24,42a7.59,7.59,0,0,1-.08,1.07,4.14,4.14,0,0,1-.28,1c0-.35.06-.7.07-1s0-.7,0-1,0-.7,0-1.05S62.92,40.28,62.88,39.92Z"/><path class="cls-16" d="M57.77,46c-.42.59-.86,1.16-1.27,1.75-.2.29-.4.59-.57.89a4,4,0,0,0-.39,1c-.06.34-.13.7-.19,1l-.19,1.06c-.13.7-.27,1.41-.42,2.11,0-.72.12-1.43.21-2.14s.19-1.42.34-2.14a3.54,3.54,0,0,1,.44-1,7.49,7.49,0,0,1,.62-.89C56.79,47,57.28,46.49,57.77,46Z"/><path class="cls-25" d="M53.47,58.76a3.68,3.68,0,0,0,2.81.36l-.36.92s-.2.28-1.32.18-1.24-.54-1.24-.54Z"/><path class="cls-26" d="M65.44,38a6.83,6.83,0,0,1-3.4.77,6.12,6.12,0,0,1-3.72-1.13l-.08.89A5.58,5.58,0,0,0,62,39.67c2.64,0,3.59-.86,3.59-.86Z"/></g><g id="freepik--arm--inject-7-2" data-name="freepik--arm--inject-7"><path class="cls-7" d="M58.7,35.53a.71.71,0,0,0-.52-.28,3.13,3.13,0,0,0-2.1.56.71.71,0,0,0-.32.5h0a5.15,5.15,0,0,0,1.1,2.52h0a.75.75,0,0,0,.34.18,1.8,1.8,0,0,0,1.59-.42.72.72,0,0,0,.21-.33h0v0a5.14,5.14,0,0,0-.3-2.72Z"/><path class="cls-3" d="M58.18,35.26c.64.09.75.5.24.91a3.08,3.08,0,0,1-2.1.55c-.64-.09-.75-.5-.24-.91A3.07,3.07,0,0,1,58.18,35.26Z"/><path class="cls-27" d="M58,35.47c.52,0,.59.3.16.59a3,3,0,0,1-1.69.44c-.51,0-.58-.3-.16-.59A3.06,3.06,0,0,1,58,35.47Z"/><path class="cls-15" d="M58.11,35.82a1.31,1.31,0,0,1,.27.06.91.91,0,0,1-.21.18,3,3,0,0,1-1.69.44.75.75,0,0,1-.26,0,.7.7,0,0,1,.2-.18A3.07,3.07,0,0,1,58.11,35.82Z"/><path class="cls-19" d="M67.18,38.78a27.47,27.47,0,0,0,.51-5.7c0-2-.32-2.42-2.13-3a6.51,6.51,0,0,0-.49,4.22l-.25,3.51s-3.73.24-4.64-.2c-.31-.15-.84-1.11-1.18-1.05a5,5,0,0,1,.08.69c0,.14-.63.56-1.4.63A7.19,7.19,0,0,1,56,37.74a0,0,0,0,0,0,0,.07.07,0,0,0,0,0,.28.28,0,0,0,.1.27.67.67,0,0,1,.16.25,1.77,1.77,0,0,1,0,.23c0,.12.15.2.23.3l.14.22a1.29,1.29,0,0,0,.9.54c1,.16,1.93,0,2.89.11a8.79,8.79,0,0,1,.87.15c.61.1,1.23.2,1.85.28a14.6,14.6,0,0,0,2.29.14C66.54,40.24,67,40.13,67.18,38.78Z"/></g></g></g><g id="freepik--character-2--inject-7"><g id="freepik--chair--inject-7-2" data-name="freepik--chair--inject-7"><path class="cls-15" d="M36.2,44.21V63a.24.24,0,0,0,.14.21.53.53,0,0,0,.49,0A.23.23,0,0,0,37,63V44.21Z"/><path class="cls-15" d="M36.59,58.72a8.44,8.44,0,0,1-4.11-1,2.59,2.59,0,0,1,0-4.9,9.07,9.07,0,0,1,8.21,0,2.59,2.59,0,0,1,0,4.9h0A8.43,8.43,0,0,1,36.59,58.72Zm0-6.57a8.08,8.08,0,0,0-4,.94,2.32,2.32,0,0,0,0,4.4,8.81,8.81,0,0,0,7.91,0h0a2.31,2.31,0,0,0,0-4.4A8.07,8.07,0,0,0,36.59,52.15Z"/><path class="cls-15" d="M33.25,43,30,60.78h0a.22.22,0,0,0,.13.23.42.42,0,0,0,.25.06.41.41,0,0,0,.24-.06.25.25,0,0,0,.14-.2L34,43Z"/><path class="cls-15" d="M43.18,60.78,40,43.09V43h-.76l3.24,17.82a.23.23,0,0,0,.13.19.42.42,0,0,0,.25.06.46.46,0,0,0,.25-.06A.24.24,0,0,0,43.18,60.78Z"/><path class="cls-16" d="M32.89,39.28a8,8,0,0,1,7.28,0,2.56,2.56,0,0,1,1.5,2.1v.93a2.56,2.56,0,0,1-1.5,2.1,8,8,0,0,1-7.28,0,2.56,2.56,0,0,1-1.5-2.1v-.93A2.56,2.56,0,0,1,32.89,39.28Z"/><path class="cls-12" d="M32.89,38.82a8,8,0,0,1,7.28,0,2.56,2.56,0,0,1,1.5,2.1v.94a2.56,2.56,0,0,1-1.5,2.1,8,8,0,0,1-7.28,0,2.56,2.56,0,0,1-1.5-2.1v-.94A2.56,2.56,0,0,1,32.89,38.82Z"/><path class="cls-28" d="M32.89,38.82a8,8,0,0,1,7.28,0,2.56,2.56,0,0,1,1.5,2.1v.94a2.56,2.56,0,0,1-1.5,2.1,8,8,0,0,1-7.28,0,2.56,2.56,0,0,1-1.5-2.1v-.94A2.56,2.56,0,0,1,32.89,38.82Z"/><ellipse class="cls-12" cx="36.53" cy="40.92" rx="5.14" ry="2.97"/><ellipse class="cls-9" cx="36.53" cy="40.92" rx="5.14" ry="2.97"/></g><g id="freepik--character--inject-7-2" data-name="freepik--character--inject-7"><g id="freepik--bottom--inject-7-2" data-name="freepik--bottom--inject-7"><path class="cls-29" d="M41.69,50.1A16.34,16.34,0,0,0,40.08,53a8.08,8.08,0,0,0-.57,2.2c0,.23,0,.69,0,.87a.26.26,0,0,1-.26.28h0c-.41,0-.92-.89-1.07-1.77a23.9,23.9,0,0,1-.19-3.05,1.28,1.28,0,0,1,.26-.61,1.81,1.81,0,0,1,.25-.3c.22-.37.44-1.12.66-1.62Z"/><path class="cls-16" d="M37,52.23a.81.81,0,0,0-.17.28,3.29,3.29,0,0,0,.36,1.12,1.58,1.58,0,0,1,.08,1.11,2.66,2.66,0,0,0,.27,1.78,4.15,4.15,0,0,0,1.74,1.73c.91.5,1.35.08,1.35.08s.4-.4.26-.63S37,52.23,37,52.23Z"/><path class="cls-26" d="M38.46,50.64a.22.22,0,0,0-.18,0,5.8,5.8,0,0,1-.5.63c-.2.2-.67.55-.79.91.07.77.64,1.41.6,2.11a3,3,0,0,0,.68,2.54,2.76,2.76,0,0,0,2.36,1.21c.43-.14.48-.56.11-1.46a9.89,9.89,0,0,1-.41-2.84,5.25,5.25,0,0,1,.06-.79,7.16,7.16,0,0,1,.23-.75.59.59,0,0,0,0-.35.6.6,0,0,0-.24-.26,2.5,2.5,0,0,0-.5-.29.86.86,0,0,0-.57-.05c-.13,0-.25.12-.39.15a.51.51,0,0,1-.49-.2.42.42,0,0,1,0-.5A.54.54,0,0,1,38.46,50.64Z"/><path class="cls-3" d="M37.8,56.08a1.94,1.94,0,0,1,3.16.75c.12.43.18,1.19-.32,1.3a2.27,2.27,0,0,1-1.9-.7A2.49,2.49,0,0,1,37.8,56.08Z"/><path class="cls-3" d="M38.7,52.79a.11.11,0,0,0,.1,0,1.75,1.75,0,0,1,1.56.55c.08,0,.08-.15,0-.31a2.06,2.06,0,0,0-1.65-.46.12.12,0,0,0-.08.14h0A.1.1,0,0,0,38.7,52.79Z"/><path class="cls-3" d="M40.34,54a.34.34,0,0,0,0-.31,2.1,2.1,0,0,0-1.59-.4.12.12,0,0,0-.08.13h0l0,.06a.11.11,0,0,0,.1,0A1.79,1.79,0,0,1,40.34,54Z"/><path class="cls-3" d="M40.48,55.61a.65.65,0,0,0-.06-.43,2.14,2.14,0,0,0-1.64-.44.1.1,0,0,0-.07.13h0a.21.21,0,0,0,0,.06.12.12,0,0,0,.1,0A1.7,1.7,0,0,1,40.48,55.61Z"/><path class="cls-3" d="M38.73,54.23a.18.18,0,0,0,.1,0,1.72,1.72,0,0,1,1.55.52.37.37,0,0,0,0-.34,2.1,2.1,0,0,0-1.59-.4.11.11,0,0,0-.07.13h0Z"/><path class="cls-30" d="M42.11,53.05a21.1,21.1,0,0,0,.17,4,8.78,8.78,0,0,0,1,2.68c.12.21.39.6.49.77a.29.29,0,0,1-.08.39l0,0a2.45,2.45,0,0,1-2.31-.67,17,17,0,0,1-1.39-2.54c-.13-.2-.25-.41-.36-.62s0-.36,0-.55a3.28,3.28,0,0,1,.08-.35c0-.48-.13-1.26-.18-1.74Z"/><path class="cls-16" d="M38.94,58.18a1.27,1.27,0,0,0,0,.34,3.53,3.53,0,0,0,.85.9,1.6,1.6,0,0,1,.57,1,2.71,2.71,0,0,0,1,1.54,4.32,4.32,0,0,0,2.42.87c1.08.07,1.31-.53,1.31-.53s.2-.56,0-.71S38.94,58.18,38.94,58.18Z"/><path class="cls-26" d="M39.62,56s-.09,0-.15.12-.1.54-.19.82a3.36,3.36,0,0,0-.35,1.22c.42.69,1.24,1,1.52,1.72A3.13,3.13,0,0,0,42.22,62a2.86,2.86,0,0,0,2.78.09c.34-.32.2-.74-.55-1.42a10.34,10.34,0,0,1-1.66-2.52,7.15,7.15,0,0,1-.29-.77,5.66,5.66,0,0,1-.12-.81.58.58,0,0,0-.14-.34.64.64,0,0,0-.34-.14,2.47,2.47,0,0,0-.61-.05.85.85,0,0,0-.55.2c-.1.11-.2.22-.31.32a.52.52,0,0,1-.55,0,.44.44,0,0,1-.26-.45A.48.48,0,0,1,39.62,56Z"/><path class="cls-3" d="M41.43,61.46a1.76,1.76,0,0,1,1.37-1.23,1.78,1.78,0,0,1,2,.52c.3.36.7,1,.28,1.38a2.41,2.41,0,0,1-2.12.18A2.54,2.54,0,0,1,41.43,61.46Z"/><path class="cls-3" d="M40.8,57.94a.11.11,0,0,0,.11,0,1.85,1.85,0,0,1,1.72-.18c.06-.07,0-.17-.11-.29a2.21,2.21,0,0,0-1.77.3.11.11,0,0,0,0,.16h0Z"/><path class="cls-3" d="M42.91,58.38a.38.38,0,0,0-.15-.3,2.24,2.24,0,0,0-1.68.33.12.12,0,0,0,0,.16h0a.09.09,0,0,0,.07,0,.12.12,0,0,0,.1,0A1.86,1.86,0,0,1,42.91,58.38Z"/><path class="cls-3" d="M43.75,59.82a.64.64,0,0,0-.24-.38,2.2,2.2,0,0,0-1.75.31.11.11,0,0,0,0,.16h0l.06,0a.11.11,0,0,0,.11,0A1.78,1.78,0,0,1,43.75,59.82Z"/><path class="cls-3" d="M41.48,59.28a.14.14,0,0,0,.11,0,1.8,1.8,0,0,1,1.69-.2.38.38,0,0,0-.18-.31,2.24,2.24,0,0,0-1.68.33.12.12,0,0,0,0,.16h0A.08.08,0,0,0,41.48,59.28Z"/><path class="cls-22" d="M39.67,36.19c.95,1.05,4,4.17,5.3,6,.37.52.4,1.11,0,2.3-.5,1.62-3,7-3,7-.24.28-.43-.39-.43-.39L37.07,41.9Z"/><path class="cls-16" d="M42.15,49.62c-1.19-1.5-4.29-9.75-4.29-9.75h.2A4.31,4.31,0,0,0,40,38.26a2.8,2.8,0,0,1-1,1.84c.29.39,1.73,2.24,2.93,3.66a2.15,2.15,0,0,1,.58,1.46A40.69,40.69,0,0,1,42.15,49.62Z"/><path class="cls-22" d="M39.31,36.24h0L31,36.35a14.86,14.86,0,0,0,.29,3.17,5.52,5.52,0,0,0,2.38,3.23c1.79,1.39,4,2.91,4.46,3.24s.35,1,.32,2a11.64,11.64,0,0,0,.37,4.11c.54,2.25.65,2.74.65,2.74a3.75,3.75,0,0,0,2.64-.2s.1-7.32.07-8.64a2.66,2.66,0,0,0-.65-2.07c-.62-.82-3.45-4.06-3.45-4.06A4.09,4.09,0,0,0,39.31,36.24Z"/></g><g id="freepik--top--inject-7-2" data-name="freepik--top--inject-7"><path class="cls-31" d="M40.73,33.43a36.85,36.85,0,0,1-3.21-4.21l.26-4.47a3.32,3.32,0,0,1,2,1.38c.57,1.21,2.46,4.48,2.46,4.48s1.46-2.77,1.65-3.19a4.54,4.54,0,0,0,.12-.5,4.77,4.77,0,0,1,1.18-2.1c.09-.1.18-.21.28-.31l.12-.15c0-.05.07-.1.15-.07a.19.19,0,0,1,.12.11.68.68,0,0,1,0,.54,3.06,3.06,0,0,1-.26.51c-.07.12.1.1.17.08a3,3,0,0,0,1-.84,4.37,4.37,0,0,1,.49-.56.8.8,0,0,1,.42-.18c.1,0,.2,0,.2.15a.73.73,0,0,1-.09.22.56.56,0,0,0-.1.45,1.68,1.68,0,0,1,.09.32,2.71,2.71,0,0,1-.09.41,2.25,2.25,0,0,0,.06.36,1.13,1.13,0,0,1-.16.41,3.32,3.32,0,0,1-.5.74,6.64,6.64,0,0,1-1,.89,2,2,0,0,0-.55.53,4.26,4.26,0,0,0-.28.7c-.1.31-.19.61-.29.91-1.06,3.27-1.52,3.9-2,4.23S42,34.69,40.73,33.43Z"/><path class="cls-15" d="M43.14,29a1.38,1.38,0,0,0,.69,1.18c.75.52,1.08.32,1.08.32a16.41,16.41,0,0,1-.83,2.48c-.44.94-.8,1.53-1.5,1.57S41.19,34,40.23,33s-2.79-3.77-2.79-3.77l.42-4.42a4.26,4.26,0,0,1,1.23.46c.48.31.81.82,1.77,2.71a15.56,15.56,0,0,0,1.38,2.41Z"/><path class="cls-16" d="M42.25,30.36a3.86,3.86,0,0,0-.53,2.45A2.72,2.72,0,0,1,42,30.06Z"/><path class="cls-29" d="M45.54,26a1.78,1.78,0,0,1-.34,1.36.83.83,0,0,0,.4-.59A1.14,1.14,0,0,0,45.54,26Z"/><path class="cls-16" d="M40,29.07c.23-2.9-.87-4.11-2.53-4.39-1-.15-2.93-.28-2.93-.28-.68.15-3.05.87-3.05.87a22.71,22.71,0,0,0-.77,6c0,1.87.13,4.89.28,7,1.86,1.18,8.36.31,9.3-1.45C39.61,35.44,39.81,31.23,40,29.07Z"/><g id="freepik--Head--inject-7"><path d="M33.91,22l0-.87a3.65,3.65,0,0,0,.61-1.4,2.27,2.27,0,0,0-.1-1.13,3.8,3.8,0,0,0-1.27-.77c-.52,0-.82.71-.89,1a5.41,5.41,0,0,0,0,1.84,3.11,3.11,0,0,0,.51,1.28c.28.42.63.8.95,1.2,0,0,.06.07.1.06s.08-.05.09-.1A4.06,4.06,0,0,0,33.91,22Z"/><path d="M33.11,17.75c-.31,1.26,2.28,3.9,3.57,3.89s2.17-1.72,2.15-3-.54-2-2.51-2.35C35.06,16,33.4,16.59,33.11,17.75Z"/><path class="cls-31" d="M32.83,22.33a.68.68,0,0,0,.79-.14l.1,2.67a2,2,0,0,0,.94.9,2.88,2.88,0,0,0,2,.2c.54-.2.82-.62.05-1.28l0-.79a4.51,4.51,0,0,0,.9,0,1.41,1.41,0,0,0,1.1-1.17,10.34,10.34,0,0,0-.2-4.44,4.52,4.52,0,0,0-4.1.31,4,4,0,0,1-.15,1.71c0,.17-.26.62-.4.65s-.32-.26-.5-.45a.75.75,0,0,0-1.13.33A1.28,1.28,0,0,0,32.83,22.33Z"/><path class="cls-29" d="M36.67,23.89A3.92,3.92,0,0,1,34.32,23a2.93,2.93,0,0,1-.41-.76,2.88,2.88,0,0,0,.27,1.09,3.27,3.27,0,0,0,2.51,1.07Z"/><path class="cls-16" d="M36.33,20.54a.27.27,0,0,1-.25.27h0a.26.26,0,0,1-.28-.26.27.27,0,0,1,.25-.28.28.28,0,0,1,.28.26Z"/><path class="cls-16" d="M36.27,19.49l-.61.16a.33.33,0,0,1,.23-.39.29.29,0,0,1,.37.21Z"/><path class="cls-16" d="M38.43,19.58l-.62-.14a.31.31,0,0,1,.35-.25h0A.34.34,0,0,1,38.43,19.58Z"/><path class="cls-16" d="M38.47,20.54a.26.26,0,1,1-.51,0,.25.25,0,0,1,.25-.25.26.26,0,0,1,.26.27Z"/><path class="cls-25" d="M34.84,19.65l-2,.7a.67.67,0,0,1,.57.27l1.4-.53Z"/><path class="cls-25" d="M39.38,19.56l-.12,0a3.67,3.67,0,0,0-1.3.07,3.8,3.8,0,0,1-.79.29,4.68,4.68,0,0,1-.83-.26,4.22,4.22,0,0,0-1.38,0l-.14,0a.24.24,0,0,0-.16.24.49.49,0,0,0,.13.27.36.36,0,0,1,0,.11A4,4,0,0,0,35,21a1,1,0,0,0,.17.27.24.24,0,0,0,.09.08l0,0a.53.53,0,0,0,.15.08h.11l.13,0h.15a1,1,0,0,0,.95-.58c.15-.27.12-.68.38-.69h0c.19.05.16.42.28.68a.79.79,0,0,0,.18.29l0,0,0,0,0,0h0l0,0a0,0,0,0,0,0,0h0a.85.85,0,0,0,.22.09h0a1.32,1.32,0,0,0,.28,0,.84.84,0,0,0,.81-.53,4,4,0,0,0,.17-.76.27.27,0,0,1,.06-.1.55.55,0,0,0,.12-.27A.21.21,0,0,0,39.38,19.56Zm-2.74,1.11a.89.89,0,0,1-.2.4.79.79,0,0,1-.62.23.64.64,0,0,1-.59-.27l0,0,0,0,0,0a0,0,0,0,0,0,0v-.06a.32.32,0,0,1,0-.09h0l0-.05,0-.08h0v0c0-.19-.08-.59,0-.67a1.08,1.08,0,0,1,.78-.15h0a1.38,1.38,0,0,1,.2,0l.07,0a.7.7,0,0,1,.19.06l.06,0,.06,0h0a.41.41,0,0,1,.13.1,1,1,0,0,1,0,.61Zm2.47-.13a.91.91,0,0,1-.41.64.72.72,0,0,1-.32.08.67.67,0,0,1-.62-.29h0s0,0,0,0l0,0h0s0,0,0,0l0,0h0v0h0a.83.83,0,0,1,0-.15,1,1,0,0,1,0-.6,1.24,1.24,0,0,1,.7-.3l.19,0H39l.05,0h0l.1.07a1.34,1.34,0,0,1,0,.71Z"/><path class="cls-29" d="M36.19,22.1l1.08.23a.56.56,0,0,1-.62.45h0A.57.57,0,0,1,36.19,22.1Z"/><path class="cls-32" d="M36.32,22.27h-.13a.58.58,0,0,0,.44.5.54.54,0,0,0,.18,0A.51.51,0,0,0,36.32,22.27Z"/></g><g id="freepik--donut-2--inject-98"><g id="freepik--donut--inject-98-2"><path class="cls-33" d="M42,27c-.55-2.06-4.15-1.51-4.27.66C37.64,30.7,42.79,29.89,42,27Zm-2.61.58a.87.87,0,0,1,1-.15.86.86,0,0,1-1,.17Z"/><path class="cls-21" d="M41.21,28.6a.08.08,0,0,1,.09,0,.13.13,0,0,1,0,.16c-.4.78-2,.88-2.62.61,1.42.68,3.86-.32,3.3-2.38s-4-1.53-4.26.54h0v0c.13.27.1.62.24.88s.33.19.5.27.27.28.43.34a.89.89,0,0,0,.51,0c.27-.05.56.19.82,0a1.61,1.61,0,0,0,.34-.24.42.42,0,0,1,.21-.06A.65.65,0,0,0,41.21,28.6ZM40,27.33h.41a.39.39,0,0,1-.1.08h0a.82.82,0,0,1-.47.15h-.16l-.09,0h-.13l0,0,.05,0,0,0,0,0a.94.94,0,0,1,.23-.1.31.31,0,0,1,.13,0H40Z"/><g id="freepik--glazed--inject-98-2"><path class="cls-34" d="M37.74,27.65a.23.23,0,0,0,0,.11c0,.12.08.18.12.3s.07.31.2.42.32.07.46.15.18.22.3.29.43-.06.65-.07.41.14.61.1.4-.3.62-.35a2.11,2.11,0,0,0,.25,0,.45.45,0,0,0,.3-.19,2.74,2.74,0,0,1,.23-.36c.12-.11.29-.12.39-.27a1.19,1.19,0,0,0,.08-.47c0-.11,0-.21,0-.3h0a.59.59,0,0,0,0-.14,1.57,1.57,0,0,0-.47-.69l-.14-.11,0,0,0,0h0l0,0-.08,0a2.67,2.67,0,0,0-2.87.43l0,0,0,0h0l0,0h0l0,0,0,0h0l0,0,0,0,0,0h0a2.62,2.62,0,0,0-.26.5A1.09,1.09,0,0,0,37.74,27.65Zm1.66-.08,0,0a.85.85,0,0,1,.93-.14h0l0,0a.9.9,0,0,1-.94.14Z"/><path class="cls-24" d="M39.36,26.92a.86.86,0,0,1,.94-.14.38.38,0,0,1,.09.64h0a.86.86,0,0,0-.94.14l0,0A.38.38,0,0,1,39.36,26.92Z"/><path class="cls-24" d="M38,28.37a.31.31,0,0,0,.09.11c.13.11.31.07.46.15s.18.22.3.29.43-.06.65-.07.41.14.61.1.4-.3.62-.34a2.11,2.11,0,0,1,.25,0,.46.46,0,0,0,.3-.2,2.12,2.12,0,0,1,.23-.35c.12-.12.29-.13.39-.28a1.19,1.19,0,0,0,.08-.47c0-.11,0-.2,0-.3h0a.34.34,0,0,0,0-.14,1.57,1.57,0,0,0-.47-.69l-.14-.11,0,0h0l0,0h0l-.08,0a2.75,2.75,0,0,0-.36-.15,1.61,1.61,0,0,1,.74.87.94.94,0,0,1,0,.68c-.11.25-.36.35-.49.58a2,2,0,0,1-.14.25c-.15.17-.39.09-.57.18s-.25.26-.4.3-.34-.08-.51-.07-.34.19-.51.14-.23-.18-.36-.24-.28,0-.42,0A.4.4,0,0,1,38,28.37Z"/><path class="cls-35" d="M39,26.8a2.49,2.49,0,0,1,.46-.4c.14-.12.24-.34,0-.4a.88.88,0,0,0-.62.16,1.83,1.83,0,0,0-.79.77.84.84,0,0,0-.06.91,1.69,1.69,0,0,1,.13.27.41.41,0,0,0,.07.11.39.39,0,0,0,.27.13,1,1,0,0,1,.47.15.35.35,0,0,0,.39,0l.13,0,.23-.05a.87.87,0,0,0,.31-.07.79.79,0,0,0,.2-.17.52.52,0,0,1,.11-.1c.1-.09.29-.27.21-.37s-.08,0-.13,0a1.24,1.24,0,0,1-.48.16,1,1,0,0,1-.56,0,.78.78,0,0,1-.51-.45A.66.66,0,0,1,39,26.8Z"/><path class="cls-36" d="M38.13,26.86a.91.91,0,0,0-.17.39.51.51,0,0,0,0,.33.57.57,0,0,0,.08.13,1.11,1.11,0,0,1,.07.16c.06.18.12.32.29.29a.52.52,0,0,1,.27.1s.09,0,.08-.08a.22.22,0,0,0-.08-.14.65.65,0,0,0-.22-.11.21.21,0,0,1-.11-.2c0-.13,0-.16,0-.31a1,1,0,0,1,.22-.48c.07-.09.39-.33.31-.47s-.32,0-.43.08A1.19,1.19,0,0,0,38.13,26.86Z"/><path class="cls-37" d="M38.39,26.67c.11-.12.25-.2.3-.13s0,.15-.16.28-.2.17-.23.09S38.29,26.8,38.39,26.67Z"/><path class="cls-37" d="M38.24,27.09a.07.07,0,0,1-.07-.06s0-.08,0-.08.06,0,.07.05A.09.09,0,0,1,38.24,27.09Z"/></g><path class="cls-38" d="M37.85,27.28a1.16,1.16,0,0,0,.23.26l.26.23c.19.16.38.3.56.46a1.14,1.14,0,0,1,.28.26c.1.16-.1.25-.2.28s-.07.13,0,.12a.4.4,0,0,0,.33-.15.33.33,0,0,0,0-.33,1.14,1.14,0,0,0-.29-.29l-.34-.28a3.67,3.67,0,0,1-.66-.59A.28.28,0,0,1,38,27a.19.19,0,0,1,.13-.12.55.55,0,0,1,.41.1c.22.15.43.34.64.5l.68.55a2.44,2.44,0,0,0,.64.44.38.38,0,0,0,.48-.2c.12-.24,0-.5-.17-.67a2.07,2.07,0,0,0-.49-.49,4.53,4.53,0,0,0-.66-.41c-.12-.07-.33-.23-.45-.3a1,1,0,0,1-.29-.24.14.14,0,0,1,0-.11A.19.19,0,0,1,39,26a.44.44,0,0,1,.2,0,1.16,1.16,0,0,1,.32.08,4.08,4.08,0,0,1,.79.44c.21.15.41.32.61.49l.32.28a2.32,2.32,0,0,0,.3.22c.2.11.34-.09.3-.34a1.88,1.88,0,0,0-.31-.67,2.24,2.24,0,0,0-1-.79s-.24-.1-.27,0a2.78,2.78,0,0,1,1.34,1.4,1,1,0,0,1,0,.17.2.2,0,0,1,0,.11s-.07,0-.09,0-.23-.17-.34-.26l-.65-.55a3,3,0,0,0-1.33-.68,1.09,1.09,0,0,0-.36,0,.18.18,0,0,0-.17.16c0,.23.19.4.32.49a11.65,11.65,0,0,1,1.32.88,1.56,1.56,0,0,1,.43.57c.12.28-.12.42-.32.34a1.21,1.21,0,0,1-.31-.21l-.31-.25-.65-.51c-.2-.16-.4-.34-.61-.48a.65.65,0,0,0-.58-.11A.35.35,0,0,0,37.85,27.28Z"/><path class="cls-39" d="M37.85,27.28a1.16,1.16,0,0,0,.23.26l.26.23c.19.16.38.3.56.46a1.14,1.14,0,0,1,.28.26c.1.16-.1.25-.2.28s-.07.13,0,.12a.4.4,0,0,0,.33-.15.33.33,0,0,0,0-.33,1.14,1.14,0,0,0-.29-.29l-.34-.28a3.67,3.67,0,0,1-.66-.59A.28.28,0,0,1,38,27a.19.19,0,0,1,.13-.12.55.55,0,0,1,.41.1c.22.15.43.34.64.5l.68.55a2.44,2.44,0,0,0,.64.44.38.38,0,0,0,.48-.2c.12-.24,0-.5-.17-.67a2.07,2.07,0,0,0-.49-.49,4.53,4.53,0,0,0-.66-.41c-.12-.07-.33-.23-.45-.3a1,1,0,0,1-.29-.24.14.14,0,0,1,0-.11A.19.19,0,0,1,39,26a.44.44,0,0,1,.2,0,1.16,1.16,0,0,1,.32.08,4.08,4.08,0,0,1,.79.44c.21.15.41.32.61.49l.32.28a2.32,2.32,0,0,0,.3.22c.2.11.34-.09.3-.34a1.88,1.88,0,0,0-.31-.67,2.24,2.24,0,0,0-1-.79s-.24-.1-.27,0a2.78,2.78,0,0,1,1.34,1.4,1,1,0,0,1,0,.17.2.2,0,0,1,0,.11s-.07,0-.09,0-.23-.17-.34-.26l-.65-.55a3,3,0,0,0-1.33-.68,1.09,1.09,0,0,0-.36,0,.18.18,0,0,0-.17.16c0,.23.19.4.32.49a11.65,11.65,0,0,1,1.32.88,1.56,1.56,0,0,1,.43.57c.12.28-.12.42-.32.34a1.21,1.21,0,0,1-.31-.21l-.31-.25-.65-.51c-.2-.16-.4-.34-.61-.48a.65.65,0,0,0-.58-.11A.35.35,0,0,0,37.85,27.28Z"/><path class="cls-40" d="M40.27,26.54c.21.15.41.32.61.49l.33.28a3.15,3.15,0,0,0,.29.22.18.18,0,0,0,.25-.05c-.09.07-.17.07-.4-.14a12.44,12.44,0,0,0-1-.84A2.8,2.8,0,0,0,39.26,26c-.26,0-.39,0-.4.12A.19.19,0,0,1,39,26a.67.67,0,0,1,.2,0,1.17,1.17,0,0,1,.32.09A3.55,3.55,0,0,1,40.27,26.54Zm1.38.84c.06-.1.09-.23,0-.52a2.19,2.19,0,0,0-.75-.85,3.77,3.77,0,0,0-.54-.34,0,0,0,0,0,0,0,2.78,2.78,0,0,1,1.34,1.4.85.85,0,0,1,0,.17A.21.21,0,0,1,41.65,27.38ZM38.49,27c.22.15.42.33.63.5l.69.55a2.44,2.44,0,0,0,.64.44.36.36,0,0,0,.25,0,1,1,0,0,1-.59-.27c-.24-.19-.49-.43-.87-.73a3.44,3.44,0,0,0-.93-.65c-.25-.06-.39.08-.36.23,0,0,0,0,0,0a.19.19,0,0,1,.13-.12.55.55,0,0,1,.41.1Zm2.29,1a.27.27,0,0,1,0,.28.29.29,0,0,0,.06-.36,1.7,1.7,0,0,0-.57-.67,6.17,6.17,0,0,0-.9-.57c-.27-.15-.59-.35-.63-.48a.74.74,0,0,0,.31.36,10.37,10.37,0,0,1,1.32.87,1.46,1.46,0,0,1,.43.57Zm-2.43-.3a1.69,1.69,0,0,1-.55-.53.61.61,0,0,0,.05.12,1.22,1.22,0,0,0,.23.27l.26.22c.19.16.38.3.56.46a1.11,1.11,0,0,1,.27.26.14.14,0,0,1,0,.15.23.23,0,0,0,0-.3,7.09,7.09,0,0,0-.81-.64Z"/></g></g><path class="cls-31" d="M41.68,28.15a1.11,1.11,0,0,0-.67.25c-.21.15-.4.31-.62.45a3.15,3.15,0,0,1-.82.41,1.52,1.52,0,0,1-.67.06,1.18,1.18,0,0,1-.85-.47,2.37,2.37,0,0,0-.38.78,1.93,1.93,0,0,1-.3.65,25.56,25.56,0,0,1-3.86,2.3s-.69-2.16-.89-3.15a10.27,10.27,0,0,0-1.19-4.06c-2,.65-2.36,1.74-1.69,4.46a21.21,21.21,0,0,0,1.51,4.67c1,1.89,2,1.53,3.63.52a43.74,43.74,0,0,0,4-3.22,3.58,3.58,0,0,1,1-.49A5,5,0,0,0,41,30.58a3.16,3.16,0,0,0,.4-.42c.1-.17,0-.38.06-.55a.14.14,0,0,1,0-.07,1.29,1.29,0,0,0,.09-.16.61.61,0,0,0,0-.3.62.62,0,0,1,.08-.48C41.74,28.49,41.9,28.18,41.68,28.15Z"/><path class="cls-15" d="M32.78,28.94l.83,3.43,1.89-.87a3.08,3.08,0,0,0,0,1.58,1.78,1.78,0,0,0,.79.92A16.53,16.53,0,0,1,34,35.71a1.79,1.79,0,0,1-1.86.16,4.49,4.49,0,0,1-1.34-1.81c-.24-.71-.9-2.86-1.06-3.64s-.7-2.63-.28-3.6a3,3,0,0,1,2.05-1.55C32.32,25.88,32.78,28.94,32.78,28.94Z"/><path class="cls-16" d="M33.61,32.37h0a2.4,2.4,0,0,0-1.3,2.06A2.16,2.16,0,0,1,33.52,32Z"/></g></g></g><g id="freepik--chair--inject-7-3" data-name="freepik--chair--inject-7"><path class="cls-15" d="M16.3,49.54V68.35a.23.23,0,0,0,.13.21.55.55,0,0,0,.5,0,.23.23,0,0,0,.13-.21V49.54Z"/><path class="cls-15" d="M16.68,64.05a8.4,8.4,0,0,1-4.1-1,2.59,2.59,0,0,1,0-4.9,9,9,0,0,1,8.2,0,2.6,2.6,0,0,1,0,4.91h0A8.39,8.39,0,0,1,16.68,64.05Zm0-6.58a8.07,8.07,0,0,0-3.95,1,2.31,2.31,0,0,0,0,4.39,8.73,8.73,0,0,0,7.9,0h0a2.31,2.31,0,0,0,0-4.39,8,8,0,0,0-3.95-.94Z"/><path class="cls-15" d="M13.35,48.34,10.11,66.12h0a.22.22,0,0,0,.13.23.55.55,0,0,0,.5,0,.28.28,0,0,0,.13-.2l3.24-17.81Z"/><path class="cls-15" d="M23.28,66.12,20.05,48.43v-.09h-.77l3.24,17.81a.26.26,0,0,0,.13.2.55.55,0,0,0,.5,0A.24.24,0,0,0,23.28,66.12Z"/><path class="cls-16" d="M13,44.61a8,8,0,0,1,7.27,0,2.55,2.55,0,0,1,1.51,2.1v.94a2.55,2.55,0,0,1-1.51,2.1,8.09,8.09,0,0,1-7.27,0,2.58,2.58,0,0,1-1.51-2.1v-.94A2.55,2.55,0,0,1,13,44.61Z"/><path class="cls-12" d="M13,44.16a8,8,0,0,1,7.27,0,2.55,2.55,0,0,1,1.51,2.1v.93a2.55,2.55,0,0,1-1.51,2.1,8,8,0,0,1-7.27,0,2.55,2.55,0,0,1-1.51-2.1v-.93A2.55,2.55,0,0,1,13,44.16Z"/><path class="cls-17" d="M13,44.16a8,8,0,0,1,7.27,0,2.55,2.55,0,0,1,1.51,2.1v.93a2.55,2.55,0,0,1-1.51,2.1,8,8,0,0,1-7.27,0,2.55,2.55,0,0,1-1.51-2.1v-.93A2.55,2.55,0,0,1,13,44.16Z"/><ellipse class="cls-12" cx="16.63" cy="46.26" rx="5.14" ry="2.97"/><ellipse class="cls-18" cx="16.63" cy="46.26" rx="5.14" ry="2.97"/></g><g id="freepik--bottom--inject-7-3" data-name="freepik--bottom--inject-7"><path class="cls-41" d="M25.36,51.75s-3.25,4.6-3.82,5.56a8.31,8.31,0,0,0-.91,1.82,7.09,7.09,0,0,0-.1,2s.18,1.3-.05,1.26a7.68,7.68,0,0,1-2.41-1.65c-.54-.7-.2-1.33.32-2.57s1.42-2.94,1.42-2.94a.63.63,0,0,0,.2-.13,39.62,39.62,0,0,0,2.12-4.92Z"/><path class="cls-14" d="M20.88,53.36l1.23,3.06c.4-.6.94-1.38,1.46-2.13,0-.91,0-2,0-2.89,0-.19,0-.36,0-.52l-1.4-.67C22,50.71,21.38,52.16,20.88,53.36Z"/><path class="cls-13" d="M18.33,56.25c-.15.27-.17.7-.38,1.15a9,9,0,0,1-.86,1.43l-.46.63.17.12.83-1.14c.26-.35.53-.56.72-.47C18.36,58,19.15,56.85,18.33,56.25Z"/><path class="cls-9" d="M18.33,56.26c-.15.27-.17.7-.38,1.15a9,9,0,0,1-.86,1.43l-.46.63.17.12.83-1.14c.26-.35.53-.56.72-.47C18.36,58,19.15,56.86,18.33,56.26Z"/><path class="cls-13" d="M19.94,55.14a13,13,0,0,0-1.27.65,1.2,1.2,0,0,0-.4.59c0,.24.09.36.12.53a1.88,1.88,0,0,1,0,.85,12.78,12.78,0,0,1-.57,1.68c-.22.54-.38.86-.15,1.37a7.31,7.31,0,0,0,1.63,1.79c.84.68,1.53.49,1.44-.09s-.18-1.2-.23-1.35a2.09,2.09,0,0,0-.91-.47c-.64-.13-1,0-1.34-.59s0-1.67,1-2.9C20.29,55.81,19.94,55.14,19.94,55.14Z"/><path class="cls-24" d="M19.94,55.14a13,13,0,0,0-1.27.65,1.2,1.2,0,0,0-.4.59c0,.24.09.36.12.53a1.88,1.88,0,0,1,0,.85,12.78,12.78,0,0,1-.57,1.68c-.22.54-.38.86-.15,1.37a7.31,7.31,0,0,0,1.63,1.79c.84.68,1.53.49,1.44-.09s-.18-1.2-.23-1.35a2.09,2.09,0,0,0-.91-.47c-.64-.13-1,0-1.34-.59s0-1.67,1-2.9C20.29,55.81,19.94,55.14,19.94,55.14Z"/><path class="cls-26" d="M24.56,44.08c-1.92-1.85-3.9-3.5-3.9-3.5l-3.05,3.49,2.25,2.29,3,2.31a3.42,3.42,0,0,0-.74,1.38c-.1.29-.73,1.91-.83,2.18A3.18,3.18,0,0,0,24,53.72l2.66-3.64c1.26-1.74.79-2.68.62-2.95A15,15,0,0,0,24.56,44.08Z"/><path class="cls-15" d="M22.85,48.67a3.42,3.42,0,0,0-.74,1.38c-.1.29-.73,1.91-.83,2.18a3.32,3.32,0,0,0,2.3,1.48c0-.79,0-1.65,0-2.31A4.6,4.6,0,0,0,22.85,48.67Z"/><path class="cls-15" d="M22.85,48.67c-.18-.25-2.88-4.34-2.88-4.34l-.76.44.65,1.59Z"/><path class="cls-33" d="M23.13,55.08c0,3.15.07,5.17.19,6a12,12,0,0,0,.5,2.2,5.48,5.48,0,0,0,1,1.5s.92.95.72,1a7.82,7.82,0,0,1-2.93.09c-.85-.24-.95-1-1.26-2.25s-.59-3.21-.59-3.21a.9.9,0,0,0,.08-.23,11,11,0,0,0-.62-2.76Z"/><path class="cls-12" d="M20.11,62.11c0,.3.28.66.37,1.15a9.15,9.15,0,0,1,.15,1.66v.78h.21V64.28c0-.43.09-.76.29-.8C21.15,63.48,21.13,62.11,20.11,62.11Z"/><path class="cls-25" d="M20.11,62.11c0,.3.28.66.37,1.15a9.15,9.15,0,0,1,.15,1.66v.78h.21V64.28c0-.43.09-.76.29-.8C21.15,63.48,21.13,62.11,20.11,62.11Z"/><path class="cls-13" d="M20.75,60.26a11.8,11.8,0,0,0-.63,1.28,1.12,1.12,0,0,0,0,.7c.17.18.28.24.4.36a1.69,1.69,0,0,1,.52.67A12.44,12.44,0,0,1,21.6,65c.14.57.2.91.69,1.18a7.8,7.8,0,0,0,2.37.48c1.08.05,1.53-.51,1.11-.92s-.86-.86-1-.95a1.92,1.92,0,0,0-1,.16c-.6.27-.79.62-1.43.32s-1-1.38-.94-2.91C21.43,60.59,20.75,60.26,20.75,60.26Z"/><path class="cls-26" d="M18.78,51.59A1.59,1.59,0,0,1,19.2,53a10.4,10.4,0,0,0,.13,1.85c.14.88.71,2.21,1.21,4a2.78,2.78,0,0,0,2.67-.44s0-6.55-.08-7.76a4.31,4.31,0,0,0-.78-2.22c-1.23-2-3.06-4.21-3.06-4.21a24.22,24.22,0,0,1,.91-2.89l-7.9-.43A5.77,5.77,0,0,0,12,44.32c.31,1.39,1.23,2.51,3.22,4.09a29,29,0,0,1,3.53,3.18"/><path class="cls-15" d="M20.79,43a2.7,2.7,0,0,1-1.41,1.31l.24.28A2.12,2.12,0,0,0,20.79,43Z"/></g><path class="cls-22" d="M20.51,29.43C20.83,27.9,18.9,28,18.4,27l1.54-1a2,2,0,0,0,.59-2.45,3.48,3.48,0,0,0-3.15-1.94c-1.85,0-2.73.48-2.89,1.45-.68,0-1.69.69-1.73,2.76a2.38,2.38,0,0,1-.22,1.27,5.87,5.87,0,0,0-.63,1c-.23.59-.05,1.44.68,1.55-.05-.16-.13-.37,0-.51,0,.74,1.3,1.17,1.89,1a.6.6,0,0,1-.32-.36,3.1,3.1,0,0,0,2.72-.08c.17-.06.3-.09.84.06a1.72,1.72,0,0,0,1.38-.21C19.51,29.26,20.14,29,20.51,29.43Z"/><path class="cls-41" d="M18.87,30c1.47,0,1.88.09,2.37.77A27,27,0,0,1,23.55,37c.1.49-2.18,1.52-2.18,1.52l-1.31-3.23Z"/><g id="freepik--Chest--inject-7"><path class="cls-5" d="M15.34,30.12A15.6,15.6,0,0,1,18.15,30h.72a16.89,16.89,0,0,1,1.92,2,3,3,0,0,1,.1,3.63l-.17,3.51.73,2.11s.05,1.55-2.24,1.84a9,9,0,0,1-4.86-1.24,6.57,6.57,0,0,1-2.45.7,15.21,15.21,0,0,1,.43-2c.45-1.46.91-1.8.95-2.5a13.55,13.55,0,0,0-.28-2.3,2,2,0,0,0,1.46-1.71,5.53,5.53,0,0,0-.57-3.46Z"/></g><g id="freepik--head--inject-7-2" data-name="freepik--head--inject-7"><path class="cls-33" d="M14.87,27.83A1,1,0,0,1,14,27.5a1.11,1.11,0,0,1-.27-1.33.69.69,0,0,1,.88-.26,1.09,1.09,0,0,1,.45.59c.11.23.59.21.69-.7a3.41,3.41,0,0,1,.65-2,1.06,1.06,0,0,1,1.58,0,.82.82,0,0,1,1.11-.32h0c.41.23.65.69.79,2.3s-.19,2.79-.57,3.06a2.21,2.21,0,0,1-1.26.28l.07.95a10.87,10.87,0,0,1,1.08,3.59,10.31,10.31,0,0,0-2.12-2.14l-1.7-1.39-.19-2.58S15.19,27.77,14.87,27.83Z"/><path class="cls-16" d="M17.42,25.93a.27.27,0,0,1-.34.19h0a.28.28,0,1,1,.34-.2Z"/><path class="cls-16" d="M17.15,25.57c-.17,0-.27.23-.44.15a.25.25,0,0,0,.32.14h0C17.12,25.81,17.15,25.57,17.15,25.57Z"/><path class="cls-16" d="M19.52,25.17l-.57-.3a.31.31,0,0,1,.41-.15h0A.34.34,0,0,1,19.52,25.17Z"/><path class="cls-16" d="M18.85,25.85a.27.27,0,0,0,.5-.21.27.27,0,0,0-.5.21Z"/><path class="cls-16" d="M19.1,25.48c.17,0,.28.22.45.12a.25.25,0,0,1-.31.15h0C19.14,25.71,19.1,25.48,19.1,25.48Z"/><path class="cls-16" d="M17.2,25l-.59.37a.32.32,0,0,1,.08-.46h0A.36.36,0,0,1,17.2,25Z"/><path class="cls-19" d="M17.22,27.28l.9.26a.47.47,0,0,1-.58.32l0,0a.43.43,0,0,1-.28-.56Z"/><path class="cls-41" d="M17.75,27.86a.5.5,0,0,0-.51-.42h0a.41.41,0,0,0,.29.39A.46.46,0,0,0,17.75,27.86Z"/><path class="cls-41" d="M18.09,29.13a5.41,5.41,0,0,1-1.74-.32,2.09,2.09,0,0,1-.72-.84A1.93,1.93,0,0,0,16.25,29a4.86,4.86,0,0,0,1.86.47Z"/></g><path class="cls-12" d="M15.44,27.9a.73.73,0,0,1-.41.71.69.69,0,0,1-.28.08.75.75,0,0,1-.68-1.14l.06.06.13.09a.53.53,0,0,0-.07.28.5.5,0,0,0,.54.47h0a.5.5,0,0,0,.29-.12.5.5,0,0,0,.07-.71.51.51,0,0,0-.42-.18.11.11,0,0,1-.13-.11h0a.11.11,0,0,1,.11-.13A.74.74,0,0,1,15.44,27.9Z"/><path class="cls-25" d="M15.44,27.9a.73.73,0,0,1-.41.71.69.69,0,0,1-.28.08.75.75,0,0,1-.68-1.14l.06.06.13.09a.53.53,0,0,0-.07.28.5.5,0,0,0,.54.47h0a.5.5,0,0,0,.29-.12.5.5,0,0,0,.07-.71.51.51,0,0,0-.42-.18.11.11,0,0,1-.13-.11h0a.11.11,0,0,1,.11-.13A.74.74,0,0,1,15.44,27.9Z"/><g id="freepik--Coffee--inject-7"><path class="cls-12" d="M25.05,38.34a1.59,1.59,0,0,0,.43-.06,1.1,1.1,0,0,0,.5-.62,2.09,2.09,0,0,0,.18-1.28c-.18-.42-.69-.43-1-.44H25l0,.4.15,0c.19,0,.61.07.66.18s-.25,1.27-.42,1.38a1.83,1.83,0,0,1-.66,0l-.13.33A1.79,1.79,0,0,0,25.05,38.34Z"/><path class="cls-13" d="M25.05,38.34a1.59,1.59,0,0,0,.43-.06,1.1,1.1,0,0,0,.5-.62,2.09,2.09,0,0,0,.18-1.28c-.18-.42-.69-.43-1-.44H25l0,.4.15,0c.19,0,.61.07.66.18s-.25,1.27-.42,1.38a1.83,1.83,0,0,1-.66,0l-.13.33A1.79,1.79,0,0,0,25.05,38.34Z"/><path class="cls-13" d="M21.49,35.45A.8.8,0,0,1,22,35a3.56,3.56,0,0,1,2.53,0c.3.13.48.29.52.46v.07a5.81,5.81,0,0,1-.45,3.1h0a.9.9,0,0,1-.34.33,2.15,2.15,0,0,1-1.93,0,.89.89,0,0,1-.33-.31h0v0a5.84,5.84,0,0,1-.52-3.1Z"/><g class="cls-42"><path class="cls-4" d="M21.49,35.58a.8.8,0,0,1,.51-.47,3.56,3.56,0,0,1,2.53,0c.3.13.48.29.52.46v.06a5.83,5.83,0,0,1-.45,3.11h0a.9.9,0,0,1-.34.33,2.15,2.15,0,0,1-1.93,0,.89.89,0,0,1-.33-.31h0v0a5.84,5.84,0,0,1-.52-3.1Z"/></g><path class="cls-13" d="M22,35c-.7.31-.69.8,0,1.1a3.67,3.67,0,0,0,2.53,0c.7-.31.69-.81,0-1.1A3.56,3.56,0,0,0,22,35Z"/><path class="cls-43" d="M22,35c-.7.31-.69.8,0,1.1a3.67,3.67,0,0,0,2.53,0c.7-.31.69-.81,0-1.1A3.56,3.56,0,0,0,22,35Z"/><path class="cls-25" d="M22.24,35.16c-.56.21-.56.53,0,.72a3.54,3.54,0,0,0,2,0c.56-.2.56-.53,0-.72A3.67,3.67,0,0,0,22.24,35.16Z"/><path class="cls-16" d="M22.25,35.6a.76.76,0,0,0-.28.15,1,1,0,0,0,.28.13,3.46,3.46,0,0,0,2,0,1.11,1.11,0,0,0,.29-.14,1.11,1.11,0,0,0-.29-.14A3.54,3.54,0,0,0,22.25,35.6Z"/></g><path class="cls-41" d="M25.09,36.46c.36-.09.56.29.51.95s-.49,1.87-1.5,1.52c-.39-.13-.65-.8-.22-1.08a6.54,6.54,0,0,0,1-.74A.88.88,0,0,0,25.09,36.46Z"/><path class="cls-33" d="M13.24,39.94A31.73,31.73,0,0,1,12,35.22c-.54-2.76-.06-4,2-4.6a10.31,10.31,0,0,1,.95,4.32c.15,1,.88,3.71.88,3.71a28,28,0,0,0,4.64-.83,2,2,0,0,0,.51-.5,2.37,2.37,0,0,1,.6-.62,1.22,1.22,0,0,0,.66.76,1.47,1.47,0,0,0,.65.18,4.27,4.27,0,0,0,1.41-.22.65.65,0,0,1,.58,0c.16.13-.09.29-.16.4s0,.3,0,.44-.12.13-.13.25,0,.22,0,.3a1.77,1.77,0,0,1-.77.51,5.29,5.29,0,0,1-1.31.29,3.39,3.39,0,0,0-1.14.1,44,44,0,0,1-4.85,1.61C14.46,41.75,13.8,41.7,13.24,39.94Z"/><g id="freepik--Table--inject-7"><g id="freepik--table--inject-7-2" data-name="freepik--table--inject-7"><path class="cls-15" d="M42.42,67.6a8,8,0,0,0-7.27,0,2.55,2.55,0,0,0-1.51,2.1v.5a2.58,2.58,0,0,0,1.5,2.07,8,8,0,0,0,7.28,0,2.59,2.59,0,0,0,1.51-2.07v-.5A2.58,2.58,0,0,0,42.42,67.6Z"/><path class="cls-26" d="M35.15,71.8c-2-1.16-2-3,0-4.2a8,8,0,0,1,7.27,0c2,1.16,2,3,0,4.2A8,8,0,0,1,35.15,71.8Z"/><path class="cls-15" d="M39.35,69.26h0V47.11H38.21V69.26h0a.26.26,0,0,0,.16.26.89.89,0,0,0,.81,0A.26.26,0,0,0,39.35,69.26Z"/><g id="freepik--table--inject-7-3" data-name="freepik--table--inject-7"><path class="cls-12" d="M29.3,43.45c5.24-3,13.74-3,19,0,2.62,1.51,3.93,3.49,3.93,5.48v.38c0,2-1.31,4-3.93,5.48-5.24,3-13.74,3-19,0-2.63-1.51-3.93-3.49-3.93-5.48v-.38C25.37,46.94,26.67,45,29.3,43.45Z"/><path class="cls-18" d="M29.3,43.45c5.24-3,13.74-3,19,0,2.62,1.51,3.93,3.49,3.93,5.48v.38c0,2-1.31,4-3.93,5.48-5.24,3-13.74,3-19,0-2.63-1.51-3.93-3.49-3.93-5.48v-.38C25.37,46.94,26.67,45,29.3,43.45Z"/><path class="cls-12" d="M29.28,42.44c5.25-3,13.75-3,19,0,2.62,1.52,3.93,3.5,3.93,5.48v.66c0,2-1.31,4-3.93,5.48-5.24,3-13.74,3-19,0-2.62-1.51-3.93-3.77-3.92-5.75v-.39C25.35,45.94,26.66,44,29.28,42.44Z"/><path class="cls-37" d="M29.28,42.44c5.25-3,13.75-3,19,0,2.62,1.52,3.93,3.5,3.93,5.48v.66c0,2-1.31,4-3.93,5.48-5.24,3-13.74,3-19,0-2.62-1.51-3.93-3.77-3.92-5.75v-.39C25.35,45.94,26.66,44,29.28,42.44Z"/><path class="cls-44" d="M29.28,42.44c5.25-3,13.75-3,19,0,2.62,1.52,3.93,3.5,3.93,5.48v.66c0,2-1.31,4-3.93,5.48-5.24,3-13.74,3-19,0-2.62-1.51-3.93-3.77-3.92-5.75v-.39C25.35,45.94,26.66,44,29.28,42.44Z"/><path class="cls-12" d="M48.27,53.4c5.24-3,5.24-7.93,0-11s-13.74-3-19,0-5.24,7.93,0,11S43,56.43,48.27,53.4Z"/><path class="cls-4" d="M48.28,53.4c5.24-3,5.24-7.93,0-11s-13.74-3-19,0-5.25,7.93,0,11S43,56.43,48.28,53.4Z"/></g></g><g id="freepik--Cake--inject-7"><path id="freepik--shadow--inject-7-7" data-name="freepik--shadow--inject-7" class="cls-14" d="M34.14,46.82c1.7,1,1.7,2.56,0,3.54a6.76,6.76,0,0,1-6.13,0c-1.69-1-1.69-2.56,0-3.54A6.79,6.79,0,0,1,34.14,46.82Z"/><g id="freepik--Plate--inject-7"><path class="cls-12" d="M34.12,46.67a6.42,6.42,0,0,0-5.82,0h0V46.5a1.9,1.9,0,0,0,0,3.53,6.42,6.42,0,0,0,5.82,0C35.73,49.11,35.73,47.6,34.12,46.67Z"/><path class="cls-45" d="M34.12,46.67a6.42,6.42,0,0,0-5.82,0h0V46.5a1.9,1.9,0,0,0,0,3.53,6.42,6.42,0,0,0,5.82,0C35.73,49.11,35.73,47.6,34.12,46.67Z"/><path class="cls-12" d="M34.12,46.5c1.61.93,1.61,2.44,0,3.37a6.45,6.45,0,0,1-5.82,0c-1.61-.93-1.61-2.44,0-3.37A6.48,6.48,0,0,1,34.12,46.5Z"/><path class="cls-46" d="M34.12,46.5c1.61.93,1.61,2.44,0,3.37a6.45,6.45,0,0,1-5.82,0c-1.61-.93-1.61-2.44,0-3.37A6.48,6.48,0,0,1,34.12,46.5Z"/><path class="cls-47" d="M34.12,46.5c1.61.93,1.61,2.44,0,3.37a6.45,6.45,0,0,1-5.82,0c-1.61-.93-1.61-2.44,0-3.37A6.48,6.48,0,0,1,34.12,46.5Z"/><path class="cls-12" d="M29.24,47.18a1.22,1.22,0,0,0,0,2.31,4.41,4.41,0,0,0,4,0,1.22,1.22,0,0,0,0-2.31A4.41,4.41,0,0,0,29.24,47.18Z"/><path class="cls-8" d="M29.24,47.18a1.22,1.22,0,0,0,0,2.31,4.41,4.41,0,0,0,4,0,1.22,1.22,0,0,0,0-2.31A4.41,4.41,0,0,0,29.24,47.18Z"/><path class="cls-12" d="M29.37,47.26a1.13,1.13,0,0,0,0,2.15,4.09,4.09,0,0,0,3.73,0,1.13,1.13,0,0,0,0-2.15A4.15,4.15,0,0,0,29.37,47.26Z"/><path class="cls-45" d="M29.37,47.26a1.13,1.13,0,0,0,0,2.15,4.09,4.09,0,0,0,3.73,0,1.13,1.13,0,0,0,0-2.15A4.15,4.15,0,0,0,29.37,47.26Z"/></g><g id="freepik--Slice--inject-7"><path id="freepik--shadow--inject-7-8" data-name="freepik--shadow--inject-7" class="cls-24" d="M28.45,49.09c0,.12,0,.24.12.24h5.71c.24,0,.27-.15.16-.52a2.73,2.73,0,0,0-1.68-1.67Z"/><g id="freepik--slice--inject-7-2" data-name="freepik--slice--inject-7"><path class="cls-15" d="M28.45,46.94v2.2a.12.12,0,0,0,.12.12h0l5.05-.69a.25.25,0,0,0,.23-.25V46.19a.12.12,0,0,0,0-.1l-2.59-1.93a.24.24,0,0,0-.33,0L28.5,46.8A.24.24,0,0,0,28.45,46.94Z"/><path class="cls-26" d="M32.38,44.59a6.2,6.2,0,0,0-1.15-.51.32.32,0,0,0-.32.08l-2.42,2.65a0,0,0,0,0,0,0h0l5.26-.71c.09,0,.09,0,.09,0h0a.27.27,0,0,0,0-.12A3.3,3.3,0,0,0,32.38,44.59Z"/><g class="cls-48"><path class="cls-49" d="M28.58,49.26l4.93-.67V48a.2.2,0,0,0-.2-.21h0l-4.82.65v.72a.12.12,0,0,0,.12.12Z"/><path class="cls-49" d="M33.27,47.43a.29.29,0,0,0,.24-.27v-.37a.2.2,0,0,0-.2-.21h0l-4.82.65v.86Z"/></g></g><path class="cls-50" d="M30.77,45a1.65,1.65,0,0,1,1.53,0c.42.24.42.63,0,.88a1.72,1.72,0,0,1-1.53,0C30.35,45.64,30.35,45.25,30.77,45Z"/><path class="cls-12" d="M31.8,44.37a1.64,1.64,0,0,1,.57.33.62.62,0,0,1,.15.71.63.63,0,0,1-.56.34,1.52,1.52,0,0,0,0-.67C31.86,44.73,31.8,44.37,31.8,44.37Z"/><path class="cls-14" d="M31.8,44.37a1.64,1.64,0,0,1,.57.33.62.62,0,0,1,.15.71.63.63,0,0,1-.56.34,1.52,1.52,0,0,0,0-.67C31.86,44.73,31.8,44.37,31.8,44.37Z"/><path class="cls-8" d="M31.36,44.35c-.08.11-.37.18-.55.3a.63.63,0,0,0-.34.36.42.42,0,0,0,.2.51c.21.1.64-.25.69-.37A4.21,4.21,0,0,0,31.36,44.35Z"/><path class="cls-12" d="M31.49,44.14a.4.4,0,0,0-.15.36.63.63,0,0,1-.38.65c-.34.18-.38.36-.2.52a.58.58,0,0,0,.42.12s.51-.12.61-.5A1.36,1.36,0,0,0,31.49,44.14Z"/><path class="cls-14" d="M31.49,44.14a.4.4,0,0,0-.15.36.63.63,0,0,1-.38.65c-.34.18-.38.36-.2.52a.58.58,0,0,0,.42.12s.51-.12.61-.5A1.36,1.36,0,0,0,31.49,44.14Z"/><path class="cls-12" d="M31.54,45.9c-.33,0-.47-.15-.31-.33s.21-.13.29-.23A.59.59,0,0,0,31.7,45c0-.34-.38-.69-.15-1,0,.16.09.26.33.45a.94.94,0,0,1,.3,1A.76.76,0,0,1,31.54,45.9Z"/><path class="cls-14" d="M31.54,45.9c-.33,0-.47-.15-.31-.33s.21-.13.29-.23A.59.59,0,0,0,31.7,45c0-.34-.38-.69-.15-1,0,.16.09.26.33.45a.94.94,0,0,1,.3,1A.76.76,0,0,1,31.54,45.9Z"/><path class="cls-50" d="M32.22,45.56a.78.78,0,0,0,0-.37.63.63,0,0,1-.5.49,1,1,0,0,1-.34,0c-.13,0-.2-.06-.2-.11l0,0,0,0h0l0,0h0l.07,0,.09-.06h0l0,0h0l0,0,0,0h0l0,0,0,0a1,1,0,0,1,0-.1v0h0a.7.7,0,0,1-.38.34.86.86,0,0,1-.45,0c-.14,0-.14-.1-.14-.11h0a.6.6,0,0,1,.25-.2.91.91,0,0,0,.16-.11.66.66,0,0,1-.19.09.74.74,0,0,1-.33,0c-.12,0-.15-.08-.12-.17l0,0a.44.44,0,0,0,.2.51h0a.45.45,0,0,0,.1.14.54.54,0,0,0,.42.12h0a.42.42,0,0,0,.35.11.87.87,0,0,0,.42-.14h0a.64.64,0,0,0,.55-.35.49.49,0,0,0,.06-.29h0A.47.47,0,0,1,32.22,45.56Z"/></g></g><g id="freepik--coffee--inject-7-2" data-name="freepik--coffee--inject-7"><path id="freepik--shadow--inject-7-9" data-name="freepik--shadow--inject-7" class="cls-25" d="M45.22,42.22c.64.37.64,1,0,1.32a2.5,2.5,0,0,1-2.29,0,.7.7,0,0,1,0-1.32A2.56,2.56,0,0,1,45.22,42.22Z"/><g id="freepik--coffee--inject-7-3" data-name="freepik--coffee--inject-7"><path class="cls-12" d="M45.85,42.52a1,1,0,0,0,.42-.06,1,1,0,0,0,.51-.62A2.07,2.07,0,0,0,47,40.57c-.18-.42-.69-.44-1-.44h-.12l0,.4h.15c.19,0,.61.08.66.18.16.26-.25,1.27-.42,1.38a1.83,1.83,0,0,1-.66,0l-.13.34A1.44,1.44,0,0,0,45.85,42.52Z"/><path class="cls-13" d="M45.85,42.52a1,1,0,0,0,.42-.06,1,1,0,0,0,.51-.62A2.07,2.07,0,0,0,47,40.57c-.18-.42-.69-.44-1-.44h-.12l0,.4h.15c.19,0,.61.08.66.18.16.26-.25,1.27-.42,1.38a1.83,1.83,0,0,1-.66,0l-.13.34A1.44,1.44,0,0,0,45.85,42.52Z"/><path class="cls-13" d="M42.29,39.64c0-.18.21-.35.51-.48a3.67,3.67,0,0,1,2.53,0,.85.85,0,0,1,.52.47v.06a5.78,5.78,0,0,1-.45,3.1v0h0a.82.82,0,0,1-.33.31,2.1,2.1,0,0,1-1.92,0,.8.8,0,0,1-.33-.3h0v0a5.75,5.75,0,0,1-.52-3.1Z"/><g class="cls-42"><path class="cls-4" d="M42.28,39.64c0-.18.2-.35.5-.48a3.67,3.67,0,0,1,2.53,0c.31.13.48.3.52.47l0,.06a5.68,5.68,0,0,1-.46,3.1v0h0a.89.89,0,0,1-.33.31,2.1,2.1,0,0,1-1.92,0,.8.8,0,0,1-.33-.3h0l0,0a5.85,5.85,0,0,1-.51-3.1Z"/></g><path class="cls-13" d="M42.8,39.16c-.7.31-.69.8,0,1.1a3.67,3.67,0,0,0,2.53,0c.7-.31.69-.8,0-1.1A3.67,3.67,0,0,0,42.8,39.16Z"/><path class="cls-43" d="M42.8,39.16c-.7.31-.69.8,0,1.1a3.67,3.67,0,0,0,2.53,0c.7-.31.69-.8,0-1.1A3.67,3.67,0,0,0,42.8,39.16Z"/><path class="cls-13" d="M43,39.35c-.56.2-.55.52,0,.72a3.54,3.54,0,0,0,2,0c.56-.2.56-.52,0-.71A3.58,3.58,0,0,0,43,39.35Z"/><path class="cls-16" d="M43.05,39.78a1.25,1.25,0,0,0-.28.15,1.25,1.25,0,0,0,.28.15,3.63,3.63,0,0,0,2,0,1.25,1.25,0,0,0,.28-.15.92.92,0,0,0-.28-.14A3.54,3.54,0,0,0,43.05,39.78Z"/></g></g><g id="freepik--plate--inject-7-2" data-name="freepik--plate--inject-7"><path id="freepik--shadow--inject-7-10" data-name="freepik--shadow--inject-7" class="cls-14" d="M40.86,41.58c1.7,1,1.7,2.56,0,3.54a6.82,6.82,0,0,1-6.13,0c-1.69-1-1.69-2.56,0-3.54A6.76,6.76,0,0,1,40.86,41.58Z"/><g id="freepik--plate--inject-7-3" data-name="freepik--plate--inject-7"><path class="cls-12" d="M40.85,41.43a6.44,6.44,0,0,0-5.83,0h0v-.17A2,2,0,0,0,33.82,43,2,2,0,0,0,35,44.8a6.44,6.44,0,0,0,5.83,0C42.45,43.87,42.46,42.36,40.85,41.43Z"/><path class="cls-45" d="M40.85,41.43a6.44,6.44,0,0,0-5.83,0h0v-.17A2,2,0,0,0,33.82,43,2,2,0,0,0,35,44.8a6.44,6.44,0,0,0,5.83,0C42.45,43.87,42.46,42.36,40.85,41.43Z"/><path class="cls-12" d="M40.85,41.26c1.61.93,1.61,2.43,0,3.36a6.44,6.44,0,0,1-5.83,0c-1.61-.93-1.61-2.43,0-3.36A6.44,6.44,0,0,1,40.85,41.26Z"/><path class="cls-46" d="M40.85,41.26c1.61.93,1.61,2.43,0,3.36a6.44,6.44,0,0,1-5.83,0c-1.61-.93-1.61-2.43,0-3.36A6.44,6.44,0,0,1,40.85,41.26Z"/><path class="cls-47" d="M40.85,41.26c1.61.93,1.61,2.43,0,3.36a6.44,6.44,0,0,1-5.83,0c-1.61-.93-1.61-2.43,0-3.36A6.44,6.44,0,0,1,40.85,41.26Z"/><path class="cls-12" d="M36,42a1.22,1.22,0,0,0,0,2.31,4.41,4.41,0,0,0,4,0A1.22,1.22,0,0,0,40,42,4.41,4.41,0,0,0,36,42Z"/><path class="cls-14" d="M36,42a1.22,1.22,0,0,0,0,2.31,4.41,4.41,0,0,0,4,0A1.22,1.22,0,0,0,40,42,4.41,4.41,0,0,0,36,42Z"/><path class="cls-12" d="M36.1,42a1.14,1.14,0,0,0,0,2.16,4.15,4.15,0,0,0,3.73,0,1.14,1.14,0,0,0,0-2.16A4.15,4.15,0,0,0,36.1,42Z"/><path class="cls-45" d="M36.1,42a1.14,1.14,0,0,0,0,2.16,4.15,4.15,0,0,0,3.73,0,1.14,1.14,0,0,0,0-2.16A4.15,4.15,0,0,0,36.1,42Z"/></g></g><g id="freepik--Sandwich--inject-7"><path id="freepik--shadow--inject-7-11" data-name="freepik--shadow--inject-7" class="cls-14" d="M49.59,46.82c1.69,1,1.69,2.56,0,3.54a6.76,6.76,0,0,1-6.13,0c-1.69-1-1.69-2.56,0-3.54A6.79,6.79,0,0,1,49.59,46.82Z"/><g id="freepik--plate--inject-7-4" data-name="freepik--plate--inject-7"><path class="cls-12" d="M49.57,46.67a6.44,6.44,0,0,0-5.83,0h0V46.5a1.9,1.9,0,0,0,0,3.53,6.44,6.44,0,0,0,5.83,0C51.18,49.11,51.18,47.6,49.57,46.67Z"/><path class="cls-45" d="M49.57,46.67a6.44,6.44,0,0,0-5.83,0h0V46.5a1.9,1.9,0,0,0,0,3.53,6.44,6.44,0,0,0,5.83,0C51.18,49.11,51.18,47.6,49.57,46.67Z"/><path class="cls-12" d="M49.57,46.5c1.61.93,1.61,2.44,0,3.37a6.47,6.47,0,0,1-5.83,0c-1.6-.93-1.6-2.44,0-3.37A6.5,6.5,0,0,1,49.57,46.5Z"/><path class="cls-46" d="M49.57,46.5c1.61.93,1.61,2.44,0,3.37a6.47,6.47,0,0,1-5.83,0c-1.6-.93-1.6-2.44,0-3.37A6.5,6.5,0,0,1,49.57,46.5Z"/><path class="cls-47" d="M49.57,46.5c1.61.93,1.61,2.44,0,3.37a6.47,6.47,0,0,1-5.83,0c-1.6-.93-1.6-2.44,0-3.37A6.5,6.5,0,0,1,49.57,46.5Z"/><path class="cls-12" d="M44.68,47.2a1.22,1.22,0,0,0,0,2.31,4.43,4.43,0,0,0,4,0,1.22,1.22,0,0,0,0-2.31A4.43,4.43,0,0,0,44.68,47.2Z"/><path class="cls-14" d="M44.68,47.2a1.22,1.22,0,0,0,0,2.31,4.43,4.43,0,0,0,4,0,1.22,1.22,0,0,0,0-2.31A4.43,4.43,0,0,0,44.68,47.2Z"/><path class="cls-12" d="M44.82,47.27a1.14,1.14,0,0,0,0,2.16,4.15,4.15,0,0,0,3.73,0,1.14,1.14,0,0,0,0-2.16A4.15,4.15,0,0,0,44.82,47.27Z"/><path class="cls-45" d="M44.82,47.27a1.14,1.14,0,0,0,0,2.16,4.15,4.15,0,0,0,3.73,0,1.14,1.14,0,0,0,0-2.16A4.15,4.15,0,0,0,44.82,47.27Z"/></g></g></g><path class="cls-20" d="M60.28,26s.67.31.64-.2"/><path class="cls-29" d="M36.92,21.34s.45.35.6.1"/><path class="cls-41" d="M18.11,26.78s.48.32.63-.29"/><path class="cls-33" d="M49.36,47.63c-.66-2.18-5.22-1.79-5.41.45C43.68,51.24,50.2,50.71,49.36,47.63ZM47.27,48a1.29,1.29,0,0,1-1.22.09A1.22,1.22,0,0,1,47.3,48l0,0Z"/><path class="cls-21" d="M45.87,49.55a.5.5,0,0,1,.27,0c.16,0,.31.13.47.16.36.07.66-.25,1-.27a1.34,1.34,0,0,0,.63-.09c.19-.11.29-.31.45-.46s.43-.19.55-.41,0-.65.08-1c0,0,0,0,0,0h0c-.79-2-5.17-1.62-5.36.58s3,2.63,4.62,1.56c-.74.44-2.69.76-3.36.06a.12.12,0,0,1,0-.17.09.09,0,0,1,.11,0A.94.94,0,0,0,45.87,49.55Zm.7-1.67h.25a1.54,1.54,0,0,1,.3,0l.07,0,0,0,.08,0,0,0-.05,0h0l0,0-.06,0-.09,0h0l-.1,0h-.08a1.3,1.3,0,0,1-.62,0h0a.35.35,0,0,1-.14-.06l0,0h0l0,0h0l0,0h0l.08,0,0,0h.28Z"/><g id="freepik--glazed--inject-98-3"><path class="cls-51" d="M49.17,47.16a3.05,3.05,0,0,0-.44-.44h0l0,0,0,0,0,0h0l-.05,0,0,0h0l0,0h0l0,0-.06,0a3.92,3.92,0,0,0-3.63.32l-.09.06,0,0,0,0,0,0,0,0a.54.54,0,0,0-.15.15,1.58,1.58,0,0,0-.42.82.76.76,0,0,0,0,.15h0a2.12,2.12,0,0,0,.11.29,1,1,0,0,0,.22.46c.14.13.36.1.53.18s.24.21.37.3a.63.63,0,0,0,.42.12c.1,0,.2,0,.3,0,.29,0,.56.2.85.18s.47-.21.73-.26.59.07.81-.1.18-.27.31-.37.38-.13.52-.27.11-.28.14-.49.06-.2.09-.34a.37.37,0,0,0,0-.11A1,1,0,0,0,49.17,47.16Zm-1.9.85a1.29,1.29,0,0,1-1.19.1h0l0,0a1.26,1.26,0,0,1,1.18-.1l0,0,0,0Z"/><path class="cls-35" d="M49.17,47.16a3.05,3.05,0,0,0-.44-.44h0l0,0,0,0,0,0h0l-.05,0,0,0h0l0,0h0l0,0-.06,0a3.92,3.92,0,0,0-3.63.32l-.09.06,0,0,0,0,0,0,0,0a.54.54,0,0,0-.15.15,1.58,1.58,0,0,0-.42.82.76.76,0,0,0,0,.15h0a2.12,2.12,0,0,0,.11.29,1,1,0,0,0,.22.46c.14.13.36.1.53.18s.24.21.37.3a.63.63,0,0,0,.42.12c.1,0,.2,0,.3,0,.29,0,.56.2.85.18s.47-.21.73-.26.59.07.81-.1.18-.27.31-.37.38-.13.52-.27.11-.28.14-.49.06-.2.09-.34a.37.37,0,0,0,0-.11A1,1,0,0,0,49.17,47.16Zm-1.9.85a1.29,1.29,0,0,1-1.19.1h0l0,0a1.26,1.26,0,0,1,1.18-.1l0,0,0,0Z"/><path class="cls-21" d="M47.3,48h0a1.26,1.26,0,0,0-1.18.1l0,0a.37.37,0,0,1,0-.68,1.29,1.29,0,0,1,1.19-.1C47.52,47.47,47.57,47.76,47.3,48Z"/><path class="cls-21" d="M49,48.57a1.75,1.75,0,0,0-.51.14c-.14.09-.23.27-.38.33s-.44,0-.67,0-.38.2-.6.2-.37-.16-.57-.2-.51.1-.73,0a1.2,1.2,0,0,1-.23-.22c-.22-.2-.55-.24-.75-.46a.86.86,0,0,1-.14-.7,1.81,1.81,0,0,1,.71-1.08,2.5,2.5,0,0,0-.41.25l-.09.06,0,0,0,0,0,0,0,0a1,1,0,0,0-.14.15,1.62,1.62,0,0,0-.42.83.71.71,0,0,0,0,.14h0a2.22,2.22,0,0,0,.11.3c.06.16.08.35.22.46s.36.09.53.17a2.64,2.64,0,0,1,.37.31.76.76,0,0,0,.42.12c.1,0,.2,0,.3,0,.29,0,.56.2.85.19s.47-.22.73-.27.59.07.81-.1.18-.26.31-.37.38-.13.52-.27a.67.67,0,0,0,.09-.14A.49.49,0,0,1,49,48.57Z"/><path class="cls-35" d="M48,47.64a.91.91,0,0,1-.52.6,1.55,1.55,0,0,1-.67.17,1.9,1.9,0,0,1-.63,0c-.08,0-.14,0-.17,0s.2.25.35.31l.15.08a.81.81,0,0,0,.29.12,1.08,1.08,0,0,0,.4,0,1.4,1.4,0,0,1,.29,0l.17,0a.55.55,0,0,0,.48-.1,1.68,1.68,0,0,1,.55-.28.56.56,0,0,0,.3-.19.78.78,0,0,0,0-.14,1.63,1.63,0,0,1,.11-.31.78.78,0,0,0-.29-.91,2.29,2.29,0,0,0-1.16-.58,1.26,1.26,0,0,0-.79,0c-.28.12-.1.32.1.4a4.88,4.88,0,0,1,.66.29A.63.63,0,0,1,48,47.64Z"/><path class="cls-36" d="M48.27,46.68c-.16-.08-.48-.15-.55,0s.39.32.49.39a.9.9,0,0,1,.39.43c0,.15,0,.2,0,.33a.2.2,0,0,1-.08.24.78.78,0,0,0-.24.16.22.22,0,0,0-.07.17c0,.07.07.11.11.05a.77.77,0,0,1,.31-.16c.22,0,.26-.18.29-.37a1.05,1.05,0,0,1,.05-.19,1,1,0,0,0,.07-.15.51.51,0,0,0-.07-.34,1,1,0,0,0-.3-.35A1.51,1.51,0,0,0,48.27,46.68Z"/><path class="cls-37" d="M48.49,47c0,.08-.14.06-.31,0s-.3-.17-.25-.25.23,0,.39.06S48.5,47,48.49,47Z"/><path class="cls-37" d="M48.53,47.11s0-.08.07-.07a.08.08,0,0,1,.08.07.08.08,0,0,1-.07.08.09.09,0,0,1-.08-.08Z"/></g><g id="freepik--sparks--inject-98-2"><g class="cls-52"><path d="M44.57,47.93h0a.06.06,0,0,1,0-.06h0l.15-.18s0,0,.05,0h0a.06.06,0,0,1,0,.06h0l-.15.18Z"/><path d="M44.71,48.83h0a0,0,0,0,1,0,0h0l0-.25s0,0,0,0,0,0,0,0h0l0,.25S44.73,48.83,44.71,48.83Z"/><path d="M45.31,49.19h0a0,0,0,0,1,0,0h0l0-.25s0,0,0,0h0a0,0,0,0,1,0,0l0,.25A0,0,0,0,1,45.31,49.19Z"/><path d="M47.55,48.49h0a.05.05,0,0,1,0-.05l.05-.24s0,0,0,0a.05.05,0,0,1,0,0h0l0,.24S47.57,48.49,47.55,48.49Z"/><path d="M44.84,48.31s0,0,0,0a0,0,0,0,1,0,0l.15-.19s0,0,0,0a0,0,0,0,1,0,.06h0l-.15.19Z"/><path d="M45,48.39a0,0,0,0,1,0,0h0s0,0,0,0l.23-.07a0,0,0,0,1,.05,0h0s0,.05,0,.05h0l-.23.08Z"/><path d="M45.38,48.17s0,0,0,0a.05.05,0,0,1,0,0h0L45.6,48a.05.05,0,0,1,0,0h0a.05.05,0,0,1,0,0l-.23.06Z"/><path d="M46,46.77h0l-.23-.09a0,0,0,0,1,0-.05h0a0,0,0,0,1,0,0l.23.09a0,0,0,0,1,0,.05A0,0,0,0,1,46,46.77Z"/><path d="M46.77,47.43a0,0,0,0,1,0,0l-.12-.21s0,0,0-.05,0,0,.05,0h0l.13.22s0,0,0,0h0Z"/><path d="M47.08,47.41h0s0,0,0,0h0l.15-.19s0,0,0,0a0,0,0,0,1,0,.05h0l-.16.19Z"/><path d="M47.77,49.18h0a0,0,0,0,1,0-.05h0l.14-.2s0,0,0,0a0,0,0,0,1,0,.05h0l-.14.2Z"/><path d="M48.22,47.7h0s0,0,0,0l.13-.2a0,0,0,1,1,.07,0h0l-.13.2Z"/><path d="M48.81,48s0,0,0,0,0,0,0,0l.24,0s0,0,0,0,0,0,0,0h0l-.24,0Z"/><path d="M44.13,48.05a0,0,0,0,1,0,0s0,0,0,0h0l.24,0a0,0,0,0,1,0,0s0,0,0,0h0l-.24,0Z"/><path d="M48.43,47.06a0,0,0,0,1,0,0,0,0,0,0,1,0,0l.24,0s0,0,0,0,0,0,0,0l-.24,0Z"/><path d="M47.35,48.71s0,0,0,0l-.13-.22s0,0,0,0h0a0,0,0,0,1,0,0l.13.21a0,0,0,0,1,0,.05h0Z"/><path d="M48.09,48.22l0,0L47.93,48s0,0,0,0,0,0,.05,0h0l.13.22a0,0,0,0,1,0,.05Z"/><path d="M45.81,48.29a0,0,0,0,1,0,0,0,0,0,0,1,0-.05h0l.24,0s0,0,0,0h0s0,0,0,0h0l-.24,0Z"/><path d="M45.5,47.86h0l-.23-.06s0,0,0,0,0,0,0,0h0l.24.06s0,0,0,0S45.51,47.86,45.5,47.86Z"/><path d="M46.42,49s0,0,0,0a0,0,0,0,1,0,0h0l.15-.19a0,0,0,0,1,.06,0,0,0,0,0,1,0,0l-.15.19Z"/><path d="M46.46,49.46h0s0,0,0-.05h0l0-.24s0,0,0,0,0,0,0,0v.25S46.48,49.45,46.46,49.46Z"/><path d="M48.75,47.71h0l-.19-.15a0,0,0,0,1,0-.06,0,0,0,0,1,0,0l.2.15a0,0,0,0,1,0,.06h0Z"/><path d="M46.08,49.35l0,0-.12-.23s0,0,0-.05a0,0,0,0,1,0,0h0l.12.22a0,0,0,0,1,0,.05h0Z"/><path d="M48.2,48.91s0,0,0,0L48,48.75s0,0,0,0a0,0,0,0,1,.05,0h0l.19.16s0,0,0,0h0Z"/><path d="M47.89,47.26h0l-.2-.15s0,0,0-.06h0l.2.15a0,0,0,0,1,0,.06Z"/><path d="M48.57,48.26h0l-.19-.15a0,0,0,0,1,0-.06,0,0,0,0,1,0,0h0l.2.15s0,0,0,.05h0l0,0Z"/><path d="M49,47.43h0l-.19-.15a0,0,0,0,1,0-.05h0a0,0,0,0,1,.05,0h0l.2.16a0,0,0,0,1,0,.05h0Z"/><path d="M47.87,46.92s0,0,0,0,0,0,0,0l.2-.15s0,0,.05,0a0,0,0,0,1,0,.05l-.19.15Z"/><path d="M46.22,47.16s0,0,0,0a.05.05,0,0,1,0,0l.23-.08a.05.05,0,0,1,0,0s0,0,0,0l-.23.08Z"/><path d="M45.1,47.47a0,0,0,0,1,0,0l0,0,.23-.08a0,0,0,0,1,0,0s0,0,0,0l-.22.08Z"/><path d="M47,49.28h0l-.19-.15a0,0,0,0,1,0,0s0,0,0,0h0l.2.16a0,0,0,0,1,0,.05Z"/><path d="M46.19,48.92h0L46,48.76a0,0,0,0,1,0-.06s0,0,0,0h0l.19.15a0,0,0,0,1,0,0h0Z"/><path d="M47.82,48.56s0,0,0,0,0,0,0,0h0l.15-.19s0,0,.05,0a0,0,0,0,1,0,0l-.14.2Z"/><path d="M45.61,49.19s0,0,0,0v0h0l.15-.19s0,0,.05,0a0,0,0,0,1,0,.05l-.15.19Z"/><path d="M47.45,46.83a0,0,0,0,1,0,0s0,0,0,0l.14-.2s0,0,0,0,0,0,0,0h0l-.14.19Z"/><path d="M47,47h0s0,0,0-.05h0l.15-.19s0,0,.06,0a0,0,0,0,1,0,.05h0L47,47Z"/><path d="M48,47.82h0l-.24,0a0,0,0,0,1,0,0s0,0,0,0h0l.24,0s0,0,0,0,0,0,0,0Z"/><path d="M46.66,46.55h0l-.2-.14s0,0,0,0a0,0,0,0,1,.05,0h0l.21.13a0,0,0,0,1,0,.05,0,0,0,0,1,0,0Z"/><path d="M47,48.48h0l-.18-.17a0,0,0,0,1,0-.06.06.06,0,0,1,.06,0h0l.18.18a0,0,0,0,1,0,0Z"/><path d="M46.87,48.89h0a0,0,0,0,1,0,0h0l.09-.23a0,0,0,0,1,0,0,0,0,0,0,1,0,0l-.09.23Z"/><path d="M47.72,48.94h0l-.21-.12a0,0,0,0,1,0,0h0a0,0,0,0,1,.05,0h0l.22.12s0,0,0,.05,0,0,0,0Z"/><path d="M45.83,47h0l-.22-.12s0,0,0,0a0,0,0,0,1,0,0h0l.21.12a0,0,0,0,1,0,0Z"/><path d="M49.25,47.8h0L49,47.68s0,0,0,0a0,0,0,0,1,0,0h0l.21.11a0,0,0,0,1,0,.06Z"/><path d="M48,47.52s0,0,0,0l-.22-.12s0,0,0,0,0,0,0,0h0l.22.12a0,0,0,0,1,0,0h0Z"/><path d="M46.55,46.62H46.3s0,0,0,0a0,0,0,0,1,0,0h.25s0,0,0,0A0,0,0,0,1,46.55,46.62Z"/><path d="M47.29,49.23h0s0,0,0,0h0l.12-.22a0,0,0,0,1,.05,0,0,0,0,0,1,0,.05l-.12.22Z"/><path d="M44.31,48.45h0s0,0,0,0l.11-.21a0,0,0,0,1,0,0s0,0,0,.06h0l-.12.21S44.33,48.45,44.31,48.45Z"/><path d="M45,49h0s0,0,0,0h0l.11-.21s0,0,.05,0a0,0,0,0,1,0,.05l-.12.21Z"/><path d="M47.42,47.62h0a0,0,0,0,1,0,0l.11-.21a0,0,0,0,1,.06,0,.06.06,0,0,1,0,.06h0l-.12.21S47.44,47.62,47.42,47.62Z"/><path d="M48.6,48.65h0l-.25,0a.05.05,0,0,1,0-.05s0,0,0,0h0l.24,0s0,0,0,0a0,0,0,0,1,0,0Z"/><path d="M48.79,48.43a0,0,0,0,1,0,0s0,0,0,0l.23-.07a.05.05,0,0,1,0,0s0,0,0,0h0l-.22.08Z"/><path d="M48.14,47.12s0,0,0,0,0,0,0,0l.23-.07a0,0,0,1,1,0,.07h0l-.23.07Z"/><path d="M46.94,46.72h0a0,0,0,0,1,0,0h0l.08-.23s0,0,0,0h0s0,0,0,0h0L47,46.7Z"/><path d="M46.2,47.45h0l-.24,0s0,0,0,0a0,0,0,0,1,0,0h0l.24,0s0,0,0,0,0,0,0,0Z"/><path d="M44.35,47.6s0,0,0,0a0,0,0,0,1,0-.06h0l.2-.13a0,0,0,0,1,0,0,0,0,0,0,1,0,0h0l-.2.14Z"/><path d="M46.35,48.49h0s0,0,0,0l.14-.2a0,0,0,0,1,0,0,0,0,0,0,1,0,.06l-.14.19Z"/><path d="M44.74,47.25s0,0,0,0a.05.05,0,0,1,0,0L45,47.1a0,0,0,0,1,0,0h0s0,.05,0,.05h0l-.23.08Z"/><path d="M45.74,48.6h0l-.24,0s0,0,0,0,0,0,0,0h0l.24,0a0,0,0,1,1,0,.08Z"/><path d="M45.76,47.59h0l-.2-.16a0,0,0,0,1,0,0s0,0,0,0h0l.2.15a0,0,0,0,1,0,.06Z"/><path d="M45.3,47a0,0,0,0,1,0,0l-.2-.16a0,0,0,0,1,0-.05,0,0,0,0,1,0,0h0l.19.16s0,0,0,0h0Z"/></g><path class="cls-38" d="M45.33,48.82s0,0,0,0l0,.25s0,0,0,0h0a0,0,0,0,0,0,0l0-.25s0,0,0,0Zm-.13-.6a.05.05,0,0,0-.05,0l-.23.08s0,0,0,0,0,0,0,0h0l.23-.07a0,0,0,0,0,0-.05Zm1.41-1.12a0,0,0,0,0,0,0h0l.13.21s0,0,0,0h0a.06.06,0,0,0,0-.06h0l-.13-.21a0,0,0,0,0,0,0h0Zm.58,0L47,47.3a0,0,0,0,0,0,.05h.06l.15-.19a0,0,0,0,0,0,0Zm.68,1.76-.14.2a0,0,0,0,0,0,0h0l0,0,.14-.2a0,0,0,0,0,0,0,0,0,0,0,0,0,0Zm.45-1.49-.14.21a0,0,0,0,0,0,0s0,0,.05,0l.14-.2a0,0,0,0,0,0,0,0,0,0,0,0,0,0Zm.71.46-.24,0s0,0,0,0,0,0,0,0h0l.23,0a0,0,0,0,0,0,0s0,0,0,0Zm-4.68,0-.24,0a0,0,0,0,0,0,0,0,0,0,0,0,0,0h0l.23,0s0,0,0,0h0a0,0,0,0,0,0,0Zm4.34-1s0,0,0,0l-.24,0s0,0,0,0,0,0,0,0h0l.24,0s0,0,0,0Zm-1.44,1.46a0,0,0,0,0,0,0h0a0,0,0,0,0,0,.05h0l.12.22,0,0s0,0,0,0v0h0ZM48,47.9a0,0,0,1,0-.07,0h0l.12.22a.05.05,0,0,0,0,0,0,0,0,0,0,0,0s0,0,0,0ZM46.43,47,46.2,47a0,0,0,0,0,0,.05s0,0,0,0h0l.23-.08s0,0,0,0h0a0,0,0,0,0,0,0h0Zm-1.13.31-.22.08a.05.05,0,0,0,0,0l0,0h0l.23-.08s0,0,0,0,0,0,0,0ZM46.8,49s0,0,0,0,0,0,0,0h0l.19.16h0a0,0,0,0,0,0,0h0ZM46,48.65s0,0,0,0a0,0,0,0,0,0,.05h0l.19.15s0,0,.05,0a0,0,0,0,0,0-.05h0Zm.64-2.15,0,0s0,0,0,0l-.21-.13s0,0-.05,0a0,0,0,0,0,0,0h0l.21.14Z"/><path class="cls-53" d="M45.33,48.82s0,0,0,0l0,.25s0,0,0,0h0a0,0,0,0,0,0,0l0-.25s0,0,0,0Zm-.13-.6a.05.05,0,0,0-.05,0l-.23.08s0,0,0,0,0,0,0,0h0l.23-.07a0,0,0,0,0,0-.05Zm1.41-1.12a0,0,0,0,0,0,0h0l.13.21s0,0,0,0h0a.06.06,0,0,0,0-.06h0l-.13-.21a0,0,0,0,0,0,0h0Zm.58,0L47,47.3a0,0,0,0,0,0,.05h.06l.15-.19a0,0,0,0,0,0,0Zm.68,1.76-.14.2a0,0,0,0,0,0,0h0l0,0,.14-.2a0,0,0,0,0,0,0,0,0,0,0,0,0,0Zm.45-1.49-.14.21a0,0,0,0,0,0,0s0,0,.05,0l.14-.2a0,0,0,0,0,0,0,0,0,0,0,0,0,0Zm.71.46-.24,0s0,0,0,0,0,0,0,0h0l.23,0a0,0,0,0,0,0,0s0,0,0,0Zm-4.68,0-.24,0a0,0,0,0,0,0,0,0,0,0,0,0,0,0h0l.23,0s0,0,0,0h0a0,0,0,0,0,0,0Zm4.34-1s0,0,0,0l-.24,0s0,0,0,0,0,0,0,0h0l.24,0s0,0,0,0Zm-1.44,1.46a0,0,0,0,0,0,0h0a0,0,0,0,0,0,.05h0l.12.22,0,0s0,0,0,0v0h0ZM48,47.9a0,0,0,1,0-.07,0h0l.12.22a.05.05,0,0,0,0,0,0,0,0,0,0,0,0s0,0,0,0ZM46.43,47,46.2,47a0,0,0,0,0,0,.05s0,0,0,0h0l.23-.08s0,0,0,0h0a0,0,0,0,0,0,0h0Zm-1.13.31-.22.08a.05.05,0,0,0,0,0l0,0h0l.23-.08s0,0,0,0,0,0,0,0ZM46.8,49s0,0,0,0,0,0,0,0h0l.19.16h0a0,0,0,0,0,0,0h0ZM46,48.65s0,0,0,0a0,0,0,0,0,0,.05h0l.19.15s0,0,.05,0a0,0,0,0,0,0-.05h0Zm.64-2.15,0,0s0,0,0,0l-.21-.13s0,0-.05,0a0,0,0,0,0,0,0h0l.21.14Z"/><path class="cls-38" d="M44.74,47.63s0,0-.05,0h0l-.16.19a0,0,0,0,0,0,0h0a0,0,0,0,0,.05,0l.15-.19a0,0,0,0,0,0,0ZM45,48l-.15.19s0,0,0,0a0,0,0,0,0,0,0l.15-.19s0,0,0-.05H45Zm1.08.13-.24,0s0,0,0,0h0s0,0,0,0h0l.24,0s0,0,0,0h0a0,0,0,0,0,0,0h0Zm.51.55-.16.19a0,0,0,0,0,0,0h0l.15-.19a0,0,0,0,0,0-.05h0a0,0,0,0,0-.05,0Zm1.39-.43-.15.19s0,0,0,0h.05l.15-.19a0,0,0,0,0,0-.06,0,0,0,0,0,0,0Zm-2.22.63-.14.19a0,0,0,0,0,0,.06s0,0,0,0h0l.15-.19a.06.06,0,0,0,0-.06s0,0-.05,0Zm1.73-2.11,0,0,.15-.19a0,0,0,0,0,0,0,0,0,0,0,0,0,0l-.15.2a0,0,0,0,0,0,.05h0Zm.29,2-.22-.12s0,0,0,0,0,0,0,0l.22.12a0,0,0,0,0,0,0,0,0,0,0,0,0,0Zm-1.91-1.88a0,0,0,0,0,0,0l0,0-.22-.12a0,0,0,0,0,0,0s0,0,0,0h0l.21.12Zm3.44.74L49,47.56a.05.05,0,0,0,0,0,0,0,0,0,0,0,0l.21.12h0s0,0,0,0l0,0ZM48,47.4l-.21-.12a0,0,0,0,0-.05,0s0,0,0,0l.22.12s0,0,0,0h0a0,0,0,0,0,0-.05Zm-1.45-.9H46.3s0,0,0,0,0,0,0,0h.25s0,0,0,0,0,0,0,0Z"/><path class="cls-9" d="M44.74,47.63s0,0-.05,0h0l-.16.19a0,0,0,0,0,0,0h0a0,0,0,0,0,.05,0l.15-.19a0,0,0,0,0,0,0ZM45,48l-.15.19s0,0,0,0a0,0,0,0,0,0,0l.15-.19s0,0,0-.05H45Zm1.08.13-.24,0s0,0,0,0h0s0,0,0,0h0l.24,0s0,0,0,0h0a0,0,0,0,0,0,0h0Zm.51.55-.16.19a0,0,0,0,0,0,0h0l.15-.19a0,0,0,0,0,0-.05h0a0,0,0,0,0-.05,0Zm1.39-.43-.15.19s0,0,0,0h.05l.15-.19a0,0,0,0,0,0-.06,0,0,0,0,0,0,0Zm-2.22.63-.14.19a0,0,0,0,0,0,.06s0,0,0,0h0l.15-.19a.06.06,0,0,0,0-.06s0,0-.05,0Zm1.73-2.11,0,0,.15-.19a0,0,0,0,0,0,0,0,0,0,0,0,0,0l-.15.2a0,0,0,0,0,0,.05h0Zm.29,2-.22-.12s0,0,0,0,0,0,0,0l.22.12a0,0,0,0,0,0,0,0,0,0,0,0,0,0Zm-1.91-1.88a0,0,0,0,0,0,0l0,0-.22-.12a0,0,0,0,0,0,0s0,0,0,0h0l.21.12Zm3.44.74L49,47.56a.05.05,0,0,0,0,0,0,0,0,0,0,0,0l.21.12h0s0,0,0,0l0,0ZM48,47.4l-.21-.12a0,0,0,0,0-.05,0s0,0,0,0l.22.12s0,0,0,0h0a0,0,0,0,0,0-.05Zm-1.45-.9H46.3s0,0,0,0,0,0,0,0h.25s0,0,0,0,0,0,0,0Z"/><path class="cls-3" d="M46,46.64l-.23-.09a0,0,0,0,0,0,0,0,0,0,0,0,0,0h0l.22.09h0s0,0,0,0h0S46,46.65,46,46.64Zm-.48,1.17s0,0,0,0a0,0,0,0,0,0,0l-.23-.06a0,0,0,0,0,0,0s0,0,0,0h0l.24.06Zm1,1.27a0,0,0,0,0,0,0v.24s0,0,0,0h0a0,0,0,0,0,0,0l0-.25a0,0,0,0,0,0,0ZM48,47.7l-.24,0s0,0,0,0h0a0,0,0,0,0,0,0h0l.24,0h0s0,0,0,0A0,0,0,0,0,48,47.7Zm-1.19.5s0,0-.05,0a0,0,0,0,0,0,0l.18.17a0,0,0,0,0,.06,0,0,0,0,0,0,0-.05h0Zm.57.69s0,0,0,0l-.11.22a0,0,0,0,0,0,.05h0s0,0,0,0l.12-.22s0,0,0,0Zm-3-.77s0,0,0,0h0l-.12.21a0,0,0,0,0,0,0h0l0,0,.11-.21A0,0,0,0,0,44.44,48.12Zm.72.55a0,0,0,0,0,0,0l-.11.21A.06.06,0,0,0,45,49h0l0,0,.12-.21a0,0,0,0,0,0,0Zm2.39-1.39a0,0,0,0,0,0,0l-.12.21a0,0,0,0,0,0,.05h0l0,0,.11-.22s0,0,0,0Zm1.05,1.25-.25,0a0,0,0,0,0,0,0h0s0,0,0,0h0l.24,0h0s0,0,0,0,0,0,0,0Zm.44-.27s0,0,0,0h0l-.23.07a.05.05,0,0,0,0,.05h0s0,0,0,0h0L49,48.3s0,0,0,0h0ZM48.39,47s0,0,0,0l-.23.07a.05.05,0,0,0,0,0h0s0,0,0,0h0l.23-.07A0,0,0,0,0,48.39,47ZM47,46.37a0,0,0,0,0-.05,0h0l-.08.23a.05.05,0,0,0,0,.05h0l0,0h0l.08-.24s0,0,0,0Zm-2,.7a0,0,0,0,0-.05,0h0l-.22.08a.05.05,0,0,0,0,0h0s0,0,0,0h0l.23-.08A0,0,0,0,0,45,47.07Zm.74,1.4-.24,0s0,0,0,0h0s0,0,0,0h0l.24,0a0,0,0,0,0,0,0,0,0,0,0,0,0,0Z"/><path class="cls-38" d="M44.73,48.46s0,0,0,0l0,.25s0,0,0,0,0,0,0,0l0-.25a0,0,0,0,0,0,0Zm2.86-.34s0,0,0,0h0l0,.24s0,0,0,0h0a0,0,0,0,0,0,0l0-.24S47.61,48.13,47.59,48.12Zm-2-.13-.24.06a0,0,0,0,0,0,0,0,0,0,0,0,0,0h0l.24-.06a0,0,0,0,0,0-.05s0,0,0,0Zm3-.55s0,0,0,0a0,0,0,0,0,0,0h0l.2.15a0,0,0,0,0,.05,0s0,0,0,0h0ZM46,49s0,0,0,0h0s0,0,0,.05l.12.22,0,0h0a0,0,0,0,0,0,0Zm2-.38a0,0,0,0,0-.05,0s0,0,0,.05l.19.16h0l0,0a0,0,0,0,0,0-.05h0Zm-.13-1.43s0,0,0,0,0,0,0,0l-.2-.15a0,0,0,0,0-.05,0,0,0,0,0,0,0,.06l.19.15Zm.49.78s0,0-.05,0a0,0,0,0,0,0,.06h0l.19.15h0s0,0,0,0a0,0,0,0,0,0,0h0Zm.66-.67-.19-.16s0,0-.05,0a0,0,0,0,0,0,0l.2.16a0,0,0,0,0,0-.06Zm-1-.66-.19.15s0,0,0,0l0,0a0,0,0,0,1,0,0l.2-.15a0,0,0,0,0,0,0,0,0,0,0,0,0,0Zm-.92.08-.16.19a0,0,0,0,0,0,0h0A.06.06,0,0,0,47,47h0l.15-.19s0,0,0,0a0,0,0,0,0,0,0ZM47,48.55a0,0,0,0,0-.05,0l-.09.22a.08.08,0,0,0,0,.05h0s0,0,0,0l.09-.23a0,0,0,0,0,0,0ZM46.2,47.4s0,0,0,0a.08.08,0,0,0,0,0l-.24,0s0,0,0,0a.07.07,0,0,0,0,.05l.24,0Zm-1.63,0a.07.07,0,0,0-.06,0h0l-.19.14s0,0,0,0h0l0,0h0l.2-.13a.06.06,0,0,0,0-.06Zm1.88.82-.14.2a0,0,0,0,0,0,0h.06l.14-.2a.07.07,0,0,0,0-.06s0,0,0,0Zm-.67-.65s0,0,0-.05h0l-.19-.16h0s0,0,0,.06h0l.19.16h.05ZM45.3,47h0s0,0,0-.05h0l-.2-.16a0,0,0,1,0,0,.06h0l.19.16h0Z"/></g></svg>