<?xml version="1.0" encoding="utf-8"?>
<!-- Generator: Adobe Illustrator 25.2.0, SVG Export Plug-In . SVG Version: 6.00 Build 0)  -->
<svg version="1.1" id="Capa_1" xmlns="http://www.w3.org/2000/svg" xmlns:xlink="http://www.w3.org/1999/xlink" x="0px" y="0px"
	 viewBox="0 0 24 24" style="enable-background:new 0 0 24 24;" xml:space="preserve">
<style type="text/css">
	.st0{fill:none;}
	.st1{fill:#FFFFFF;}
</style>
<path class="st0" d="M0,0h24v24H0V0z"/>
<path class="st1" d="M12,2C6.5,2,2,6.5,2,12s4.5,10,10,10s10-4.5,10-10S17.5,2,12,2z M18.8,17.2c-1.5-1.9-5.3-2.5-6.8-2.5
	s-5.3,0.6-6.8,2.5C4.1,15.7,3.4,14,3.4,12c0-4.7,3.9-8.6,8.6-8.6s8.6,3.9,8.6,8.6C20.6,14,19.9,15.7,18.8,17.2z M12,6
	c-1.9,0-3.5,1.6-3.5,3.5S10.1,13,12,13s3.5-1.6,3.5-3.5S13.9,6,12,6z"/>
</svg>
